<svg width="24" height="24" viewBox="0 0 24 24" fill="none" xmlns="http://www.w3.org/2000/svg">
<g clip-path="url(#clip0_464_877)">
<path d="M11.9925 23.7731C5.565 23.7731 0.326253 18.5456 0.313128 12.12C0.301878 5.68125 5.52938 0.433125 11.9663 0.421875H11.9906C18.4181 0.421875 23.655 5.64938 23.6644 12.075C23.6775 18.5119 18.45 23.7581 12.0131 23.7731H11.9925Z" fill="#2F2F2F"/>
<path d="M11.9906 0.703125C18.2625 0.703125 23.3738 5.805 23.3813 12.0769C23.3944 18.3581 18.2925 23.4788 12.0113 23.4919H11.9906C5.71875 23.4919 0.605628 18.39 0.592503 12.12C0.583128 5.835 5.685 0.714375 11.9663 0.703125H11.9906ZM11.9906 0.140625H11.9663C5.3625 0.151875 0.0206281 5.51625 0.0318781 12.12C0.0450031 18.7163 5.39813 24.0544 11.9925 24.0544H12.0131C18.615 24.0394 23.9588 18.6769 23.9456 12.075C23.9363 5.47875 18.5831 0.140625 11.9906 0.140625Z" fill="#464747"/>
<path d="M14.0437 4.55818C14.8237 6.35068 14.1037 8.97756 11.5556 10.3257C7.68933 12.4069 3.81183 10.0969 4.67246 6.24006C5.24621 3.66006 7.88058 2.15818 10.1006 2.17693C11.8481 2.20318 13.4287 3.15193 14.0437 4.55818Z" fill="white"/>
<path d="M10.2131 4.91062C10.3143 4.49812 10.2318 4.09687 9.93744 3.79687C9.35244 3.20437 8.23119 3.31312 7.21494 4.03875C6.17619 4.7775 5.74119 5.79937 6.21369 6.51187C6.44994 6.87 6.85119 7.04812 7.32932 7.05937C7.06869 7.66687 7.07432 8.32875 7.41932 8.8575C8.12244 9.93 9.72369 9.95062 11.1393 8.82937C12.5062 7.74 12.7931 6.285 11.9231 5.43187C11.4843 4.98937 10.8693 4.83187 10.2131 4.91062ZM8.46744 5.67375C8.04744 5.96062 7.59182 5.955 7.37244 5.66625C7.15494 5.37 7.29931 4.94812 7.71931 4.65187C8.12994 4.35187 8.59869 4.3275 8.83682 4.605C9.07307 4.87312 8.96432 5.28187 8.58182 5.58937C8.55932 5.61 8.54244 5.61562 8.52182 5.63437C8.50307 5.64375 8.48619 5.66062 8.46744 5.67375ZM9.19682 6.4575C9.69369 6.08625 10.2768 6.06562 10.6049 6.4425C10.9424 6.81 10.8187 7.39125 10.2956 7.79437C9.76682 8.20687 9.15182 8.19187 8.83682 7.785C8.53869 7.38562 8.69619 6.81937 9.19682 6.4575Z" fill="#2F2F2F"/>
</g>
<defs>
<clipPath id="clip0_464_877">
<rect width="24" height="24" fill="white"/>
</clipPath>
</defs>
</svg>
