<svg width="24" height="24" viewBox="0 0 24 24" fill="none" xmlns="http://www.w3.org/2000/svg">
<path d="M18 9.2085C17.5537 9.46875 17.25 9.9465 17.25 10.5C17.2507 10.7621 17.3204 11.0193 17.452 11.2459C17.5837 11.4725 17.7727 11.6604 18 11.7907V15.018C17.9378 15.0143 17.8785 15 17.8155 15H15V11.7907C15.2273 11.6604 15.4163 11.4725 15.548 11.2459C15.6796 11.0193 15.7493 10.7621 15.75 10.5C15.75 9.9465 15.4463 9.46875 15 9.2085V6H18V9.2085ZM6 15.018V11.7907C6.22732 11.6604 6.41632 11.4725 6.54797 11.2459C6.67963 11.0193 6.74931 10.7621 6.75 10.5C6.75 9.9465 6.44625 9.46875 6 9.2085V6H9V9.2085C8.55375 9.46875 8.25 9.9465 8.25 10.5C8.25069 10.7621 8.32037 11.0193 8.45203 11.2459C8.58368 11.4725 8.77268 11.6604 9 11.7907V15H6.1845C6.1215 15 6.06225 15.0143 6 15.018ZM13.5 9.2085C13.0537 9.46875 12.75 9.9465 12.75 10.5C12.7507 10.7621 12.8204 11.0193 12.952 11.2459C13.0837 11.4725 13.2727 11.6604 13.5 11.7907V15H10.5V11.7907C10.7273 11.6604 10.9163 11.4725 11.048 11.2459C11.1796 11.0193 11.2493 10.7621 11.25 10.5C11.25 9.9465 10.9463 9.46875 10.5 9.2085V6H13.5V9.2085ZM21.75 4.5H2.25C1.8375 4.5 1.5 4.8375 1.5 5.25C1.5 5.66175 1.8375 6 2.25 6H4.5V9.2085C4.05375 9.46875 3.75 9.9465 3.75 10.5C3.75069 10.7621 3.82037 11.0193 3.95203 11.2459C4.08368 11.4725 4.27268 11.6604 4.5 11.7907V15.4913C4.04163 15.7756 3.66334 16.1722 3.40087 16.6434C3.13841 17.1147 3.00044 17.6451 3 18.1845C3 18.9113 3.58875 19.5 4.3155 19.5H19.6845C20.4113 19.5 21 18.9113 21 18.1845C21 17.046 20.3978 16.0545 19.5 15.4913V11.7907C19.7273 11.6604 19.9163 11.4725 20.048 11.2459C20.1796 11.0193 20.2493 10.7621 20.25 10.5C20.25 9.9465 19.9463 9.46875 19.5 9.2085V6H21.75C22.1625 6 22.5 5.66175 22.5 5.25C22.5 4.8375 22.1625 4.5 21.75 4.5Z" fill="black"/>
</svg>
