<svg width="78" height="18" viewBox="0 0 78 18" fill="none" xmlns="http://www.w3.org/2000/svg">
<path d="M0 17.46V0.179993H6.792C7.888 0.179993 8.808 0.403993 9.552 0.851993C10.296 1.29999 10.856 1.87999 11.232 2.59199C11.608 3.29599 11.796 4.03999 11.796 4.82399C11.796 5.77599 11.56 6.59199 11.088 7.27199C10.624 7.95199 9.996 8.41599 9.204 8.66399L9.18 8.07599C10.284 8.34799 11.132 8.87999 11.724 9.67199C12.316 10.456 12.612 11.372 12.612 12.42C12.612 13.436 12.408 14.32 12 15.072C11.6 15.824 11.012 16.412 10.236 16.836C9.468 17.252 8.536 17.46 7.44 17.46H0ZM2.544 15.072H7.056C7.624 15.072 8.132 14.964 8.58 14.748C9.036 14.532 9.392 14.224 9.648 13.824C9.912 13.416 10.044 12.932 10.044 12.372C10.044 11.852 9.928 11.384 9.696 10.968C9.472 10.544 9.144 10.212 8.712 9.97199C8.288 9.72399 7.788 9.59999 7.212 9.59999H2.544V15.072ZM2.544 7.23599H6.756C7.22 7.23599 7.636 7.14399 8.004 6.95999C8.38 6.76799 8.676 6.49599 8.892 6.14399C9.116 5.78399 9.228 5.35199 9.228 4.84799C9.228 4.17599 9.004 3.62399 8.556 3.19199C8.108 2.75999 7.508 2.54399 6.756 2.54399H2.544V7.23599Z" fill="#FAFAFA"/>
<path d="M20.748 17.82C19.46 17.82 18.328 17.54 17.352 16.98C16.384 16.412 15.628 15.624 15.084 14.616C14.548 13.6 14.28 12.424 14.28 11.088C14.28 9.67199 14.544 8.44399 15.072 7.40399C15.608 6.36399 16.352 5.55999 17.304 4.99199C18.256 4.42399 19.364 4.13999 20.628 4.13999C21.948 4.13999 23.072 4.44799 24 5.06399C24.928 5.67199 25.62 6.53999 26.076 7.66799C26.54 8.79599 26.724 10.136 26.628 11.688H24.12V10.776C24.104 9.27199 23.816 8.15999 23.256 7.43999C22.704 6.71999 21.86 6.35999 20.724 6.35999C19.468 6.35999 18.524 6.75599 17.892 7.54799C17.26 8.33999 16.944 9.48399 16.944 10.98C16.944 12.404 17.26 13.508 17.892 14.292C18.524 15.068 19.436 15.456 20.628 15.456C21.412 15.456 22.088 15.28 22.656 14.928C23.232 14.568 23.68 14.056 24 13.392L26.46 14.172C25.956 15.332 25.192 16.232 24.168 16.872C23.144 17.504 22.004 17.82 20.748 17.82ZM16.128 11.688V9.73199H25.38V11.688H16.128Z" fill="#FAFAFA"/>
<path d="M36.7363 17.46C35.9203 17.62 35.1203 17.688 34.3363 17.664C33.5523 17.64 32.8523 17.488 32.2363 17.208C31.6203 16.928 31.1563 16.488 30.8443 15.888C30.5643 15.352 30.4123 14.808 30.3883 14.256C30.3723 13.696 30.3643 13.064 30.3643 12.36V0.899992H32.8843V12.24C32.8843 12.76 32.8883 13.212 32.8963 13.596C32.9123 13.98 32.9963 14.304 33.1483 14.568C33.4363 15.064 33.8923 15.348 34.5163 15.42C35.1483 15.484 35.8883 15.456 36.7363 15.336V17.46ZM27.8803 6.51599V4.49999H36.7363V6.51599H27.8803Z" fill="#FAFAFA"/>
<path d="M44.4268 17.82C43.0988 17.82 41.9708 17.524 41.0428 16.932C40.1148 16.34 39.4028 15.528 38.9068 14.496C38.4188 13.464 38.1708 12.292 38.1628 10.98C38.1708 9.64399 38.4268 8.46399 38.9308 7.43999C39.4348 6.40799 40.1548 5.59999 41.0908 5.01599C42.0268 4.43199 43.1508 4.13999 44.4628 4.13999C45.8788 4.13999 47.0868 4.49199 48.0868 5.19599C49.0948 5.89999 49.7588 6.86399 50.0788 8.08799L47.5828 8.80799C47.3348 8.07999 46.9268 7.51599 46.3588 7.11599C45.7988 6.70799 45.1548 6.50399 44.4268 6.50399C43.6028 6.50399 42.9268 6.69999 42.3988 7.09199C41.8708 7.47599 41.4788 8.00399 41.2228 8.67599C40.9668 9.34799 40.8348 10.116 40.8268 10.98C40.8348 12.316 41.1388 13.396 41.7388 14.22C42.3468 15.044 43.2428 15.456 44.4268 15.456C45.2348 15.456 45.8868 15.272 46.3828 14.904C46.8868 14.528 47.2708 13.992 47.5348 13.296L50.0788 13.896C49.6548 15.16 48.9548 16.132 47.9788 16.812C47.0028 17.484 45.8188 17.82 44.4268 17.82Z" fill="#FAFAFA"/>
<path d="M61.6194 17.46V11.088C61.6194 10.584 61.5754 10.068 61.4874 9.53999C61.4074 9.00399 61.2474 8.50799 61.0074 8.05199C60.7754 7.59599 60.4434 7.22799 60.0114 6.94799C59.5874 6.66799 59.0314 6.52799 58.3434 6.52799C57.8954 6.52799 57.4714 6.60399 57.0714 6.75599C56.6714 6.89999 56.3194 7.13599 56.0154 7.46399C55.7194 7.79199 55.4834 8.22399 55.3074 8.75999C55.1394 9.29599 55.0554 9.94799 55.0554 10.716L53.4954 10.128C53.4954 8.95199 53.7154 7.91599 54.1554 7.01999C54.5954 6.11599 55.2274 5.41199 56.0514 4.90799C56.8754 4.40399 57.8714 4.15199 59.0394 4.15199C59.9354 4.15199 60.6874 4.29599 61.2954 4.58399C61.9034 4.87199 62.3954 5.25199 62.7714 5.72399C63.1554 6.18799 63.4474 6.69599 63.6474 7.24799C63.8474 7.79999 63.9834 8.33999 64.0554 8.86799C64.1274 9.39599 64.1634 9.85999 64.1634 10.26V17.46H61.6194ZM52.5114 17.46V0.179993H54.7554V9.50399H55.0554V17.46H52.5114Z" fill="#FAFAFA"/>
<path d="M70.9491 17.82C69.9891 17.82 69.1851 17.644 68.5371 17.292C67.8891 16.932 67.3971 16.46 67.0611 15.876C66.7331 15.284 66.5691 14.636 66.5691 13.932C66.5691 13.276 66.6851 12.7 66.9171 12.204C67.1491 11.708 67.4931 11.288 67.9491 10.944C68.4051 10.592 68.9651 10.308 69.6291 10.092C70.2051 9.92399 70.8571 9.77599 71.5851 9.64799C72.3131 9.51999 73.0771 9.39999 73.8771 9.28799C74.6851 9.17599 75.4851 9.06399 76.2771 8.95199L75.3651 9.45599C75.3811 8.43999 75.1651 7.68799 74.7171 7.19999C74.2771 6.70399 73.5171 6.45599 72.4371 6.45599C71.7571 6.45599 71.1331 6.61599 70.5651 6.93599C69.9971 7.24799 69.6011 7.76799 69.3771 8.49599L67.0371 7.77599C67.3571 6.66399 67.9651 5.77999 68.8611 5.12399C69.7651 4.46799 70.9651 4.13999 72.4611 4.13999C73.6211 4.13999 74.6291 4.33999 75.4851 4.73999C76.3491 5.13199 76.9811 5.75599 77.3811 6.61199C77.5891 7.03599 77.7171 7.48399 77.7651 7.95599C77.8131 8.42799 77.8371 8.93599 77.8371 9.47999V17.46H75.6171V14.496L76.0491 14.88C75.5131 15.872 74.8291 16.612 73.9971 17.1C73.1731 17.58 72.1571 17.82 70.9491 17.82ZM71.3931 15.768C72.1051 15.768 72.7171 15.644 73.2291 15.396C73.7411 15.14 74.1531 14.816 74.4651 14.424C74.7771 14.032 74.9811 13.624 75.0771 13.2C75.2131 12.816 75.2891 12.384 75.3051 11.904C75.3291 11.424 75.3411 11.04 75.3411 10.752L76.1571 11.052C75.3651 11.172 74.6451 11.28 73.9971 11.376C73.3491 11.472 72.7611 11.568 72.2331 11.664C71.7131 11.752 71.2491 11.86 70.8411 11.988C70.4971 12.108 70.1891 12.252 69.9171 12.42C69.6531 12.588 69.4411 12.792 69.2811 13.032C69.1291 13.272 69.0531 13.564 69.0531 13.908C69.0531 14.244 69.1371 14.556 69.3051 14.844C69.4731 15.124 69.7291 15.348 70.0731 15.516C70.4171 15.684 70.8571 15.768 71.3931 15.768Z" fill="#FAFAFA"/>
</svg>
