<svg width="24" height="24" viewBox="0 0 24 24" fill="none" xmlns="http://www.w3.org/2000/svg">
<path fill-rule="evenodd" clip-rule="evenodd" d="M17.8725 6.08494L15.41 6.82494L17.05 11.1139C18.0383 10.8719 19.0817 11.0155 19.9678 11.5156C20.8539 12.0158 21.5161 12.8348 21.8196 13.806C22.1231 14.7771 22.0451 15.8275 21.6014 16.7432C21.1578 17.6589 20.3818 18.3711 19.4316 18.7348C18.4813 19.0985 17.4281 19.0864 16.4864 18.701C15.5448 18.3156 14.7854 17.5857 14.3629 16.6601C13.9403 15.7345 13.8864 14.6826 14.2121 13.7187C14.5378 12.7547 15.2187 11.9511 16.116 11.4714L15.292 9.31644L12.451 15.2174C12.41 15.3022 12.346 15.3737 12.2662 15.4237C12.1864 15.4737 12.0941 15.5001 12 15.4999H9.969C9.84066 16.5086 9.33307 17.4305 8.54939 18.0783C7.76572 18.7262 6.76477 19.0513 5.74999 18.9876C4.73521 18.924 3.78274 18.4763 3.08619 17.7356C2.38964 16.9949 2.00126 16.0167 2 14.9999C1.99924 13.9819 2.38667 13.0019 3.08334 12.2596C3.78001 11.5173 4.7335 11.0686 5.74952 11.0048C6.76554 10.9411 7.76764 11.2671 8.55163 11.9165C9.33562 12.5659 9.84251 13.4898 9.969 14.4999H11.219L8.779 7.66794C8.75979 7.61401 8.74998 7.55719 8.75 7.49994H8C7.86739 7.49994 7.74022 7.44726 7.64645 7.35349C7.55268 7.25973 7.5 7.13255 7.5 6.99994C7.5 6.86733 7.55268 6.74016 7.64645 6.64639C7.74022 6.55262 7.86739 6.49994 8 6.49994H10.25C10.3826 6.49994 10.5098 6.55262 10.6036 6.64639C10.6973 6.74016 10.75 6.86733 10.75 6.99994C10.75 7.13255 10.6973 7.25973 10.6036 7.35349C10.5098 7.44726 10.3826 7.49994 10.25 7.49994H9.781L10.702 10.0784L14.7655 7.93994L14.283 6.67844C14.2584 6.6142 14.2474 6.54558 14.2506 6.47688C14.2537 6.40818 14.271 6.34087 14.3014 6.27916C14.3318 6.21745 14.3745 6.16267 14.427 6.11824C14.4795 6.07381 14.5406 6.04068 14.6065 6.02094L17.585 5.12744L17.8725 6.08494ZM11.0415 11.0299L12.0275 13.7899L14.1425 9.39794L11.0415 11.0299ZM17.533 15.1784L16.4765 12.4149C15.8286 12.7972 15.348 13.4088 15.1298 14.1287C14.9117 14.8486 14.9719 15.6242 15.2986 16.3017C15.6254 16.9793 16.1947 17.5094 16.8938 17.787C17.5929 18.0646 18.3708 18.0694 19.0733 17.8005C19.7758 17.5316 20.3517 17.0087 20.6868 16.3352C21.0219 15.6617 21.0918 14.887 20.8826 14.1644C20.6734 13.4419 20.2004 12.8243 19.5573 12.4341C18.9142 12.0438 18.148 11.9094 17.4105 12.0574L18.467 14.8214C18.5122 14.9448 18.507 15.081 18.4526 15.2006C18.3981 15.3202 18.2988 15.4136 18.176 15.4605C18.0533 15.5074 17.917 15.5041 17.7967 15.4513C17.6763 15.3985 17.5816 15.3005 17.533 15.1784ZM8.9585 14.4999H6C5.86739 14.4999 5.74022 14.5526 5.64645 14.6464C5.55268 14.7402 5.5 14.8673 5.5 14.9999C5.5 15.1325 5.55268 15.2597 5.64645 15.3535C5.74022 15.4473 5.86739 15.4999 6 15.4999H8.9585C8.83113 16.24 8.43095 16.9054 7.83696 17.3648C7.24297 17.8242 6.49833 18.0442 5.75004 17.9814C5.00176 17.9186 4.3042 17.5776 3.79508 17.0256C3.28595 16.4736 3.00226 15.7509 3 14.9999C2.99931 14.2472 3.2816 13.5218 3.79084 12.9675C4.30009 12.4132 4.99908 12.0707 5.74914 12.0077C6.4992 11.9448 7.24551 12.1661 7.84001 12.6277C8.4345 13.0894 8.83374 13.7577 8.9585 14.4999Z" fill="black"/>
</svg>
