<svg width="50" height="50" viewBox="0 0 50 50" fill="none" xmlns="http://www.w3.org/2000/svg">
<g clip-path="url(#clip0_33_683)">
<path d="M12.5009 3.53959C12.5009 2.94167 12.4949 2.37059 12.5009 1.79802C12.5158 0.757252 13.2777 -0.00468382 14.2946 -0.000210612C15.3039 0.00426259 16.0554 0.772163 16.0673 1.82188C16.0733 2.37804 16.0673 2.93421 16.0673 3.53064H33.9278C33.9278 3.00131 33.9263 2.469 33.9278 1.93669C33.9337 0.791547 34.6509 0.00575366 35.6976 -0.000210612C36.7696 -0.00617489 37.4942 0.784091 37.4972 1.96204C37.4972 2.47795 37.4972 2.99535 37.4972 3.5709C37.7447 3.5709 37.943 3.5709 38.1428 3.5709C40.3181 3.5709 42.4949 3.56344 44.6703 3.57239C47.6209 3.58581 49.9916 5.93871 49.9931 8.88656C50.0005 20.827 50.0005 32.769 49.9931 44.7095C49.9916 47.62 47.6135 49.9923 44.6971 49.9938C31.5661 50.0013 18.4365 50.0013 5.30544 49.9938C2.38908 49.9923 0.00649426 47.62 0.00500328 44.7125C-0.00245162 32.7541 -0.0039426 20.7942 0.00500328 8.83437C0.00649426 5.9581 2.39057 3.59028 5.26816 3.57388C7.61198 3.56046 9.95431 3.56941 12.2981 3.56792C12.3354 3.56792 12.3712 3.55897 12.4994 3.53959H12.5009ZM46.4281 17.8926H3.56844V18.5397C3.56844 27.094 3.56844 35.6497 3.56844 44.204C3.56844 45.7771 4.22597 46.4302 5.81088 46.4302C18.605 46.4302 31.3991 46.4302 44.1932 46.4302C45.7781 46.4302 46.4281 45.7801 46.4281 44.198C46.4281 35.6438 46.4281 27.088 46.4281 18.5338C46.4281 18.3325 46.4281 18.1297 46.4281 17.8941V17.8926ZM46.4281 14.2619C46.4281 12.6083 46.4281 10.9949 46.4281 9.3801C46.4281 7.79659 45.7751 7.13753 44.2021 7.13753C33.2688 7.13753 22.3354 7.13753 11.4006 7.13753C9.44887 7.13753 7.49568 7.13306 5.54399 7.13903C4.30499 7.1435 3.57888 7.88009 3.56844 9.12364C3.56397 9.75585 3.56844 10.3881 3.56844 11.0203C3.56844 12.0924 3.56844 13.1659 3.56844 14.2604H46.4296L46.4281 14.2619Z" fill="black"/>
<path d="M21.5029 33.288C23.2682 31.7746 24.9739 30.3118 26.6811 28.8491C28.7133 27.1075 30.7425 25.363 32.7822 23.6289C33.4337 23.0742 34.2791 23.0235 34.9515 23.4559C35.5897 23.8674 35.94 24.6547 35.6896 25.3943C35.5539 25.7924 35.2721 26.189 34.953 26.4679C31.9636 29.0638 28.9518 31.6329 25.946 34.2095C24.874 35.128 23.8065 36.0554 22.724 36.962C21.7757 37.7553 20.8871 37.7075 20.0089 36.8323C18.3092 35.1399 16.6125 33.4446 14.9217 31.7448C14.1211 30.9396 14.0868 29.8511 14.8233 29.116C15.5628 28.3764 16.6468 28.4078 17.4534 29.2129C18.7953 30.5519 20.1267 31.9013 21.5059 33.2895L21.5029 33.288Z" fill="black"/>
</g>
<defs>
<clipPath id="clip0_33_683">
<rect width="50" height="50" fill="white"/>
</clipPath>
</defs>
</svg>
