<svg width="24" height="24" viewBox="0 0 24 24" fill="none" xmlns="http://www.w3.org/2000/svg">
<path d="M14 8.51012C13.6515 8.48066 13.3011 8.53625 12.9789 8.67211C12.6566 8.80798 12.3722 9.02006 12.15 9.29012C12.1265 9.31756 12.0974 9.3396 12.0646 9.35471C12.0318 9.36982 11.9961 9.37764 11.96 9.37764C11.9239 9.37764 11.8882 9.36982 11.8554 9.35471C11.8226 9.3396 11.7935 9.31756 11.77 9.29012C11.5559 9.03148 11.2844 8.82632 10.9772 8.69092C10.6699 8.55553 10.3354 8.49362 10 8.51012C9 8.62012 8 9.51012 8 11.2201C8 14.0101 11.56 16.6001 11.71 16.7101C11.7952 16.769 11.8964 16.8006 12 16.8006C12.1036 16.8006 12.2048 16.769 12.29 16.7101C12.44 16.6001 16 14.0001 16 11.2201C16 9.50012 15 8.62012 14 8.51012Z" fill="black"/>
<path d="M21.5 21C21.5 21.7956 21.1839 22.5587 20.6213 23.1213C20.0587 23.6839 19.2956 24 18.5 24H5.5C4.70435 24 3.94129 23.6839 3.37868 23.1213C2.81607 22.5587 2.5 21.7956 2.5 21V3C2.5 2.20435 2.81607 1.44129 3.37868 0.87868C3.94129 0.31607 4.70435 0 5.5 0L18.5 0C19.2956 0 20.0587 0.31607 20.6213 0.87868C21.1839 1.44129 21.5 2.20435 21.5 3V21ZM5.5 2C5.23478 2 4.98043 2.10536 4.79289 2.29289C4.60536 2.48043 4.5 2.73478 4.5 3V21C4.5 21.2652 4.60536 21.5196 4.79289 21.7071C4.98043 21.8946 5.23478 22 5.5 22H18.5C18.7652 22 19.0196 21.8946 19.2071 21.7071C19.3946 21.5196 19.5 21.2652 19.5 21V3C19.5 2.73478 19.3946 2.48043 19.2071 2.29289C19.0196 2.10536 18.7652 2 18.5 2H5.5Z" fill="black"/>
<path d="M6 4.75C6 5.08152 6.1317 5.39946 6.36612 5.63388C6.60054 5.8683 6.91848 6 7.25 6C7.58152 6 7.89946 5.8683 8.13388 5.63388C8.3683 5.39946 8.5 5.08152 8.5 4.75C8.5 4.41848 8.3683 4.10054 8.13388 3.86612C7.89946 3.6317 7.58152 3.5 7.25 3.5C6.91848 3.5 6.60054 3.6317 6.36612 3.86612C6.1317 4.10054 6 4.41848 6 4.75ZM15.5 19.25C15.5 19.5815 15.6317 19.8995 15.8661 20.1339C16.1005 20.3683 16.4185 20.5 16.75 20.5C17.0815 20.5 17.3995 20.3683 17.6339 20.1339C17.8683 19.8995 18 19.5815 18 19.25C18 18.9185 17.8683 18.6005 17.6339 18.3661C17.3995 18.1317 17.0815 18 16.75 18C16.4185 18 16.1005 18.1317 15.8661 18.3661C15.6317 18.6005 15.5 18.9185 15.5 19.25Z" fill="black"/>
</svg>
