<svg width="24" height="24" viewBox="0 0 24 24" fill="none" xmlns="http://www.w3.org/2000/svg">
<path d="M6 22C5.45 22 4.97933 21.8043 4.588 21.413C4.19667 21.0217 4.00067 20.5507 4 20V4C4 3.45 4.196 2.97933 4.588 2.588C4.98 2.19667 5.45067 2.00067 6 2H19C19.2833 2 19.521 2.096 19.713 2.288C19.905 2.48 20.0007 2.71733 20 3C19.9993 3.28267 19.9033 3.52033 19.712 3.713C19.5207 3.90567 19.2833 4.00133 19 4H18V6C18 6.28333 17.904 6.521 17.712 6.713C17.52 6.905 17.2827 7.00067 17 7H9C8.71667 7 8.47933 6.904 8.288 6.712C8.09667 6.52 8.00067 6.28267 8 6V4H6V20H10.05C9.41667 19.55 8.91667 18.979 8.55 18.287C8.18333 17.595 8 16.8327 8 16V13C8 12.45 8.196 11.9793 8.588 11.588C8.98 11.1967 9.45067 11.0007 10 11H16C16.55 11 17.021 11.196 17.413 11.588C17.805 11.98 18.0007 12.4507 18 13V16C18 16.8333 17.8167 17.596 17.45 18.288C17.0833 18.98 16.5833 19.5507 15.95 20H19C19.2833 20 19.521 20.096 19.713 20.288C19.905 20.48 20.0007 20.7173 20 21C19.9993 21.2827 19.9033 21.5203 19.712 21.713C19.5207 21.9057 19.2833 22.0013 19 22H6ZM13 19C13.8333 19 14.5417 18.7083 15.125 18.125C15.7083 17.5417 16 16.8333 16 16V13H10V16C10 16.8333 10.2917 17.5417 10.875 18.125C11.4583 18.7083 12.1667 19 13 19ZM13 10C13.2833 10 13.521 9.904 13.713 9.712C13.905 9.52 14.0007 9.28267 14 9C13.9993 8.71733 13.9033 8.48 13.712 8.288C13.5207 8.096 13.2833 8 13 8C12.7167 8 12.4793 8.096 12.288 8.288C12.0967 8.48 12.0007 8.71733 12 9C11.9993 9.28267 12.0953 9.52033 12.288 9.713C12.4807 9.90567 12.718 10.0013 13 10Z" fill="black"/>
</svg>
