<svg width="24" height="24" viewBox="0 0 24 24" fill="none" xmlns="http://www.w3.org/2000/svg">
<path d="M5.63248 19.5C5.26776 19.5004 4.9046 19.4525 4.55248 19.3575C3.49566 19.0561 2.59905 18.3525 2.05503 17.3977C1.511 16.4428 1.36289 15.3128 1.64248 14.25L3.38998 7.61997C3.52607 7.0834 3.76801 6.57943 4.10159 6.13767C4.43517 5.6959 4.85366 5.32525 5.33248 5.04747C5.7987 4.77743 6.31387 4.60259 6.84814 4.53307C7.38242 4.46355 7.92518 4.50073 8.44498 4.64247C8.99753 4.79591 9.51219 5.06247 9.95631 5.42526C10.4004 5.78805 10.7643 6.23915 11.025 6.74997H12.975C13.2349 6.23861 13.5985 5.78706 14.0428 5.42419C14.487 5.06131 15.002 4.79507 15.555 4.64247C16.0748 4.50073 16.6175 4.46355 17.1518 4.53307C17.6861 4.60259 18.2013 4.77743 18.6675 5.04747C19.144 5.32453 19.5609 5.69316 19.8943 6.13209C20.2277 6.57103 20.4709 7.07161 20.61 7.60497L22.3575 14.25C22.6412 15.3159 22.4943 16.4506 21.9484 17.4091C21.4025 18.3675 20.5015 19.0728 19.44 19.3725C18.9202 19.5142 18.3774 19.5514 17.8431 19.4819C17.3089 19.4124 16.7937 19.2375 16.3275 18.9675C15.8502 18.6914 15.4326 18.3231 15.0991 17.884C14.7656 17.4449 14.5229 16.9438 14.385 16.41L14.25 15.75H9.74998L9.57748 16.395C9.43958 16.9288 9.19681 17.4299 8.86331 17.869C8.52981 18.3081 8.11226 18.6764 7.63498 18.9525C7.02559 19.3039 6.33592 19.4925 5.63248 19.5ZM7.37248 5.99997C6.91993 6.00185 6.47555 6.12069 6.08248 6.34497C5.46662 6.70631 5.01897 7.29688 4.83748 7.98747L3.08998 14.6175C2.90712 15.3005 2.99952 16.0281 3.34732 16.6437C3.69511 17.2594 4.27056 17.714 4.94998 17.91C5.27811 17.9995 5.62073 18.023 5.95801 17.9793C6.2953 17.9355 6.62056 17.8253 6.91498 17.655C7.22151 17.478 7.48955 17.2415 7.70336 16.9595C7.91717 16.6774 8.07242 16.3554 8.15998 16.0125L8.62498 14.25H15.375L15.8325 16.0125C15.9216 16.3548 16.0774 16.6761 16.2911 16.9579C16.5048 17.2398 16.772 17.4767 17.0775 17.655C17.3733 17.8251 17.6999 17.9352 18.0383 17.9789C18.3768 18.0227 18.7206 17.9993 19.05 17.91C19.7302 17.7159 20.3064 17.2611 20.6532 16.6446C21.0001 16.0281 21.0897 15.2996 20.9025 14.6175L19.155 7.98747C19.0679 7.64532 18.9137 7.3239 18.7012 7.04192C18.4888 6.75994 18.2223 6.52302 17.9175 6.34497C17.6216 6.17484 17.2951 6.06475 16.9566 6.02099C16.6182 5.97724 16.2744 6.00068 15.945 6.08997C15.5376 6.20609 15.1638 6.41773 14.8547 6.70731C14.5455 6.99689 14.3099 7.35606 14.1675 7.75497L13.9875 8.24997H10.0125L9.83248 7.75497C9.68874 7.35552 9.45182 6.99611 9.14139 6.70654C8.83095 6.41698 8.45595 6.20561 8.04748 6.08997C7.82734 6.03079 7.60043 6.00053 7.37248 5.99997Z" fill="black"/>
<path d="M7.5 12C7.20333 12 6.91332 11.912 6.66665 11.7472C6.41997 11.5824 6.22771 11.3481 6.11418 11.074C6.00065 10.7999 5.97094 10.4983 6.02882 10.2074C6.0867 9.91639 6.22956 9.64912 6.43934 9.43934C6.64912 9.22956 6.91639 9.0867 7.20737 9.02882C7.49834 8.97094 7.79994 9.00065 8.07403 9.11418C8.34811 9.22771 8.58238 9.41997 8.74721 9.66665C8.91203 9.91332 9 10.2033 9 10.5C9 10.8978 8.84197 11.2794 8.56066 11.5607C8.27936 11.842 7.89783 12 7.5 12Z" fill="black"/>
<path d="M16.5 9.75C16.9142 9.75 17.25 9.41421 17.25 9C17.25 8.58579 16.9142 8.25 16.5 8.25C16.0858 8.25 15.75 8.58579 15.75 9C15.75 9.41421 16.0858 9.75 16.5 9.75Z" fill="black"/>
<path d="M16.5 12.75C16.9142 12.75 17.25 12.4142 17.25 12C17.25 11.5858 16.9142 11.25 16.5 11.25C16.0858 11.25 15.75 11.5858 15.75 12C15.75 12.4142 16.0858 12.75 16.5 12.75Z" fill="black"/>
<path d="M15 11.25C15.4142 11.25 15.75 10.9142 15.75 10.5C15.75 10.0858 15.4142 9.75 15 9.75C14.5858 9.75 14.25 10.0858 14.25 10.5C14.25 10.9142 14.5858 11.25 15 11.25Z" fill="black"/>
<path d="M18 11.25C18.4142 11.25 18.75 10.9142 18.75 10.5C18.75 10.0858 18.4142 9.75 18 9.75C17.5858 9.75 17.25 10.0858 17.25 10.5C17.25 10.9142 17.5858 11.25 18 11.25Z" fill="black"/>
</svg>
