<svg width="24" height="24" viewBox="0 0 24 24" fill="none" xmlns="http://www.w3.org/2000/svg">
<path d="M12 22C10.85 22 9.746 21.8083 8.688 21.425C7.63 21.0417 6.65067 20.5 5.75 19.8C5.51667 19.6167 5.39167 19.3833 5.375 19.1C5.35833 18.8167 5.45 18.575 5.65 18.375C5.85 18.175 6.08767 18.071 6.363 18.063C6.63833 18.055 6.89233 18.1423 7.125 18.325C7.25833 18.4417 7.4 18.55 7.55 18.65C7.7 18.75 7.85 18.8417 8 18.925V16H6C5.45 16 4.97933 15.8043 4.588 15.413C4.19667 15.0217 4.00067 14.5507 4 14V8C4 6.9 4.39167 5.95833 5.175 5.175C5.95833 4.39167 6.9 4 8 4H11C11.2833 4 11.521 4.096 11.713 4.288C11.905 4.48 12.0007 4.71733 12 5V9H18C18.55 9 19.021 9.196 19.413 9.588C19.805 9.98 20.0007 10.4507 20 11V14C20 14.55 19.8043 15.021 19.413 15.413C19.0217 15.805 18.5507 16.0007 18 16H16V18.925C16.1667 18.825 16.325 18.725 16.475 18.625C16.625 18.525 16.775 18.4167 16.925 18.3C17.1417 18.1167 17.3877 18.0333 17.663 18.05C17.9383 18.0667 18.1673 18.1667 18.35 18.35C18.55 18.55 18.646 18.7877 18.638 19.063C18.63 19.3383 18.5173 19.5673 18.3 19.75C17.4 20.4667 16.4123 21.021 15.337 21.413C14.2617 21.805 13.1493 22.0007 12 22ZM12 20C12.3333 20 12.6667 19.9793 13 19.938C13.3333 19.8967 13.6667 19.834 14 19.75V16H10V19.75C10.3333 19.8333 10.6667 19.896 11 19.938C11.3333 19.98 11.6667 20.0007 12 20ZM6 14H18V11H10V6H8C7.45 6 6.97933 6.196 6.588 6.588C6.19667 6.98 6.00067 7.45067 6 8V14Z" fill="black"/>
</svg>
