<svg width="16" height="16" viewBox="0 0 16 16" fill="none" xmlns="http://www.w3.org/2000/svg">
<path fill-rule="evenodd" clip-rule="evenodd" d="M3.21667 7.33337H5.47C5.55067 7.33337 5.68334 7.33337 5.80467 7.34404C5.95467 7.35737 6.21067 7.39471 6.48134 7.54604C6.74962 7.69626 6.97112 7.91776 7.12134 8.18604C7.272 8.45604 7.30934 8.71204 7.32267 8.86204C7.334 8.98404 7.33334 9.11604 7.33334 9.19671V12.8034C7.33334 12.884 7.33334 13.0167 7.32267 13.138C7.30934 13.288 7.27267 13.544 7.12067 13.8147C6.97046 14.083 6.74895 14.3045 6.48067 14.4547C6.27228 14.5693 6.04179 14.6379 5.80467 14.656C5.68267 14.6667 5.55067 14.6667 5.47 14.6667H3.19667C3.11667 14.6667 2.98334 14.6667 2.862 14.656C2.62484 14.6377 2.39434 14.5688 2.186 14.454C1.91772 14.3038 1.69622 14.0823 1.546 13.814C1.4312 13.6057 1.36232 13.3752 1.344 13.138C1.33334 13.016 1.33334 12.884 1.33334 12.8034V9.19671C1.33334 9.11671 1.33334 8.98337 1.344 8.86204C1.35734 8.71204 1.39467 8.45604 1.546 8.18604C1.69622 7.91776 1.91772 7.69626 2.186 7.54604C2.39434 7.43124 2.62484 7.36236 2.862 7.34404C2.984 7.33337 3.116 7.33337 3.19667 7.33337H3.21667ZM2.70934 8.83737C2.66667 8.91337 2.66667 9.01337 2.66667 9.21737V12.784C2.66667 12.986 2.66667 13.0874 2.70934 13.1627C2.73938 13.2164 2.78368 13.2607 2.83734 13.2907C2.91334 13.3334 3.014 13.3334 3.21667 13.3334H5.45C5.65267 13.3334 5.754 13.3334 5.83 13.2907C5.88341 13.2606 5.92747 13.2163 5.95734 13.1627C6 13.0874 6 12.9867 6 12.7834V9.21671C6 9.01404 6 8.91337 5.95734 8.83671C5.9272 8.7833 5.8829 8.73924 5.82934 8.70937C5.754 8.66671 5.65334 8.66671 5.45 8.66671H3.21667C3.014 8.66671 2.91334 8.66671 2.83667 8.70937C2.78326 8.73951 2.7392 8.78381 2.70934 8.83737ZM3.21667 1.33337H5.47C5.55067 1.33337 5.68334 1.33337 5.80467 1.34404C5.95467 1.35737 6.21067 1.39471 6.48134 1.54604C6.74962 1.69625 6.97112 1.91776 7.12134 2.18604C7.272 2.45604 7.30934 2.71204 7.32267 2.86204C7.334 2.98404 7.33334 3.11604 7.33334 3.19671V4.80337C7.33334 4.88404 7.33334 5.01671 7.32267 5.13804C7.30934 5.28804 7.27267 5.54404 7.12067 5.81471C6.97046 6.08299 6.74895 6.30449 6.48067 6.45471C6.27228 6.56928 6.04179 6.63793 5.80467 6.65604C5.68267 6.66737 5.55067 6.66671 5.47 6.66671H3.19667C3.11667 6.66671 2.98334 6.66671 2.862 6.65604C2.62484 6.63772 2.39434 6.56884 2.186 6.45404C1.91772 6.30383 1.69622 6.08232 1.546 5.81404C1.4312 5.6057 1.36232 5.37521 1.344 5.13804C1.33334 5.01604 1.33334 4.88404 1.33334 4.80337V3.19671C1.33334 3.11671 1.33334 2.98337 1.344 2.86204C1.35734 2.71204 1.39467 2.45604 1.546 2.18604C1.69622 1.91776 1.91772 1.69625 2.186 1.54604C2.39434 1.43124 2.62484 1.36236 2.862 1.34404C2.984 1.33337 3.116 1.33337 3.19667 1.33337H3.21667ZM2.70934 2.83737C2.66667 2.91337 2.66667 3.01337 2.66667 3.21671V4.78337C2.66667 4.98604 2.66667 5.08737 2.70934 5.16337C2.73948 5.21679 2.78377 5.26085 2.83734 5.29071C2.91334 5.33337 3.01334 5.33337 3.21667 5.33337H5.45C5.65267 5.33337 5.754 5.33337 5.83 5.29071C5.88341 5.26057 5.92747 5.21628 5.95734 5.16271C6 5.08737 6 4.98671 6 4.78337V3.21671C6 3.01404 6 2.91337 5.95734 2.83671C5.9272 2.7833 5.8829 2.73924 5.82934 2.70937C5.754 2.66671 5.65334 2.66671 5.45 2.66671H3.21667C3.014 2.66671 2.91334 2.66671 2.83667 2.70937C2.78326 2.73951 2.7392 2.78381 2.70934 2.83737ZM10.55 8.66671H12.8033C12.884 8.66671 13.0167 8.66671 13.138 8.65604C13.288 8.64271 13.544 8.60604 13.8147 8.45404C14.083 8.30383 14.3045 8.08233 14.4547 7.81404C14.606 7.54404 14.6427 7.28804 14.656 7.13804C14.6667 7.01604 14.6667 6.88404 14.6667 6.80337V3.19671C14.6667 3.11671 14.6667 2.98337 14.656 2.86204C14.6377 2.62487 14.5688 2.39438 14.454 2.18604C14.3038 1.91776 14.0823 1.69625 13.814 1.54604C13.6057 1.43124 13.3752 1.36236 13.138 1.34404C13.016 1.33337 12.884 1.33337 12.8033 1.33337H10.53C10.45 1.33337 10.3167 1.33337 10.1953 1.34404C10.0453 1.35737 9.78934 1.39471 9.51934 1.54604C9.25105 1.69625 9.02955 1.91776 8.87934 2.18604C8.76453 2.39438 8.69566 2.62487 8.67734 2.86204C8.66667 2.98404 8.66667 3.11604 8.66667 3.19671V6.80337C8.66667 6.88404 8.66667 7.01671 8.67734 7.13804C8.69067 7.28804 8.728 7.54404 8.87934 7.81471C9.02955 8.08299 9.25105 8.30449 9.51934 8.45471C9.78934 8.60537 10.0453 8.64271 10.1953 8.65604C10.3173 8.66737 10.4493 8.66671 10.53 8.66671H10.55ZM10.0427 7.16271C10 7.08671 10 6.98671 10 6.78337V3.21671C10 3.01404 10 2.91337 10.0427 2.83671C10.0728 2.7833 10.1171 2.73924 10.1707 2.70937C10.2467 2.66671 10.3467 2.66671 10.5507 2.66671H12.784C12.986 2.66671 13.0873 2.66671 13.1627 2.70937C13.2163 2.73942 13.2606 2.78372 13.2907 2.83737C13.3333 2.91337 13.3333 3.01404 13.3333 3.21671V6.78337C13.3333 6.98604 13.3333 7.08671 13.2907 7.16337C13.2605 7.21679 13.2162 7.26085 13.1627 7.29071C13.0873 7.33337 12.986 7.33337 12.7833 7.33337H10.55C10.3473 7.33337 10.2467 7.33337 10.17 7.29071C10.1166 7.26057 10.0725 7.21628 10.0427 7.16271ZM10.55 14.6667H12.8033C12.884 14.6667 13.0167 14.6667 13.138 14.656C13.288 14.6427 13.544 14.6054 13.8147 14.454C14.083 14.3038 14.3045 14.0823 14.4547 13.814C14.606 13.544 14.6427 13.288 14.656 13.138C14.6667 13.016 14.6667 12.884 14.6667 12.8034V11.1967C14.6667 11.1167 14.6667 10.9834 14.656 10.862C14.6377 10.6249 14.5688 10.3944 14.454 10.186C14.3038 9.91776 14.0823 9.69626 13.814 9.54604C13.6057 9.43124 13.3752 9.36236 13.138 9.34404C13.016 9.33337 12.884 9.33337 12.8033 9.33337H10.53C10.45 9.33337 10.3167 9.33337 10.1953 9.34404C10.0453 9.35737 9.78934 9.39471 9.51934 9.54604C9.25105 9.69626 9.02955 9.91776 8.87934 10.186C8.76453 10.3944 8.69566 10.6249 8.67734 10.862C8.66667 10.984 8.66667 11.116 8.66667 11.1967V12.8034C8.66667 12.884 8.66667 13.0167 8.67734 13.138C8.69067 13.288 8.728 13.544 8.87934 13.8147C9.02955 14.083 9.25105 14.3045 9.51934 14.4547C9.78934 14.606 10.0453 14.6427 10.1953 14.656C10.3173 14.6667 10.4493 14.6667 10.53 14.6667H10.55ZM10.0427 13.1627C10 13.0874 10 12.9867 10 12.7834V11.2167C10 11.014 10 10.9134 10.0427 10.8367C10.0728 10.7833 10.1171 10.7392 10.1707 10.7094C10.2467 10.6667 10.3473 10.6667 10.5507 10.6667H12.784C12.986 10.6667 13.0873 10.6667 13.1627 10.7094C13.216 10.7394 13.2607 10.7834 13.2907 10.8374C13.3333 10.9134 13.3333 11.014 13.3333 11.2174V12.784C13.3333 12.986 13.3333 13.0874 13.2907 13.1627C13.2606 13.2164 13.2163 13.2607 13.1627 13.2907C13.0873 13.3334 12.986 13.3334 12.7833 13.3334H10.55C10.3473 13.3334 10.2467 13.3334 10.17 13.2907C10.1166 13.2606 10.0725 13.2163 10.0427 13.1627Z" fill="black"/>
</svg>
