<svg width="18" height="24" viewBox="0 0 18 24" fill="none" xmlns="http://www.w3.org/2000/svg">
<g clip-path="url(#clip0_464_877)">
<path d="M4.5 1.125C4.5 0.501562 5.00156 0 5.625 0H9.375C9.99844 0 10.5 0.501562 10.5 1.125V2.25H10.875C11.4984 2.25 12 2.75156 12 3.375C12 3.99844 11.4984 4.5 10.875 4.5H4.125C3.50156 4.5 3 3.99844 3 3.375C3 2.75156 3.50156 2.25 4.125 2.25H4.5V1.125ZM0 12C0 8.68594 2.68594 6 6 6H12C15.3141 6 18 8.68594 18 12V21C18 22.6547 16.6547 24 15 24H3C1.34531 24 0 22.6547 0 21V12ZM12 12V16.5C12 17.3297 12.6703 18 13.5 18C14.3297 18 15 17.3297 15 16.5V12C15 11.1703 14.3297 10.5 13.5 10.5C12.6703 10.5 12 11.1703 12 12Z" fill="black"/>
</g>
<defs>
<clipPath id="clip0_464_877">
<rect width="18" height="24" fill="white"/>
</clipPath>
</defs>
</svg>
