<svg width="24" height="24" viewBox="0 0 24 24" fill="none" xmlns="http://www.w3.org/2000/svg">
<path fill-rule="evenodd" clip-rule="evenodd" d="M1.27997 2.21344C1.41897 1.39444 2.13397 0.82544 2.95197 0.82544H3.09797C3.1318 0.825404 3.16527 0.832231 3.19638 0.845507C3.22748 0.858784 3.25557 0.878234 3.27894 0.902681C3.30232 0.927127 3.32048 0.956062 3.33235 0.987733C3.34421 1.0194 3.34953 1.05315 3.34797 1.08694L3.12547 5.97194C3.12176 6.05395 3.13424 6.13589 3.1622 6.21308C3.19016 6.29026 3.23304 6.36119 3.28841 6.4218C3.34378 6.48242 3.41054 6.53153 3.48489 6.56634C3.55924 6.60115 3.63971 6.62098 3.72172 6.62469C3.80373 6.6284 3.88567 6.61592 3.96286 6.58796C4.04005 6.56001 4.11097 6.51712 4.17159 6.46175C4.2322 6.40639 4.28131 6.33962 4.31613 6.26528C4.35094 6.19093 4.37076 6.11045 4.37447 6.02844L4.59997 1.06444C4.60281 1.00006 4.6304 0.939263 4.67698 0.894732C4.72356 0.850201 4.78553 0.825377 4.84997 0.82544H6.14997C6.21442 0.825377 6.27639 0.850201 6.32297 0.894732C6.36955 0.939263 6.39714 1.00006 6.39997 1.06444L6.62547 6.02844C6.63303 6.19407 6.70608 6.34991 6.82854 6.46168C6.951 6.57345 7.11285 6.632 7.27847 6.62444C7.4441 6.61688 7.59994 6.54384 7.71171 6.42138C7.82349 6.29891 7.88203 6.13707 7.87447 5.97144L7.65247 1.08694C7.65092 1.05315 7.65623 1.0194 7.6681 0.987733C7.67996 0.956062 7.69813 0.927127 7.7215 0.902681C7.74488 0.878234 7.77296 0.858784 7.80407 0.845507C7.83518 0.832231 7.86865 0.825404 7.90247 0.82544H8.04747C8.86547 0.82544 9.58047 1.39394 9.71947 2.21294C9.95097 3.57994 10.275 5.96994 10.249 8.52594C10.2345 9.94594 9.28397 11.2224 7.79247 11.5564C7.57447 11.6058 7.34647 11.6501 7.10847 11.6894L8.02947 20.4614C8.16747 21.7754 7.34947 23.0959 5.98747 23.2854C5.82611 23.3101 5.66321 23.3235 5.49997 23.3254C5.33691 23.3235 5.17418 23.3101 5.01297 23.2854C3.65097 23.0954 2.83297 21.7754 2.97097 20.4614L3.89197 11.6899C3.6629 11.6522 3.43497 11.6079 3.20847 11.5569C1.71647 11.2229 0.765974 9.94644 0.751474 8.52644C0.725474 5.97044 1.04897 3.58044 1.27997 2.21344ZM22 1.24994C16.063 1.24994 11.25 6.06294 11.25 11.9999C11.25 17.9369 16.063 22.7499 22 22.7499C22.1989 22.7499 22.3897 22.6709 22.5303 22.5303C22.671 22.3896 22.75 22.1989 22.75 21.9999V18.7089C22.5009 18.736 22.2505 18.7497 22 18.7499C18.272 18.7499 15.25 15.7279 15.25 11.9999C15.25 8.27194 18.272 5.24994 22 5.24994C22.2536 5.24994 22.5036 5.26361 22.75 5.29094V1.99994C22.75 1.80103 22.671 1.61026 22.5303 1.46961C22.3897 1.32896 22.1989 1.24994 22 1.24994ZM22 17.2499C22.255 17.2499 22.505 17.2323 22.75 17.1969V6.80294C22.5015 6.76819 22.2509 6.75048 22 6.74994C19.1005 6.74994 16.75 9.10044 16.75 11.9999C16.75 14.8994 19.1005 17.2499 22 17.2499Z" fill="black"/>
</svg>
