<svg width="24" height="24" viewBox="0 0 24 24" fill="none" xmlns="http://www.w3.org/2000/svg">
<path d="M21.3 7.50014C21.5215 7.31962 21.7018 7.09371 21.8287 6.83764C21.9555 6.58157 22.0261 6.30128 22.0355 6.01566C22.0449 5.73003 21.993 5.44571 21.8833 5.18183C21.7736 4.91795 21.6086 4.68065 21.3994 4.48592C21.1902 4.29118 20.9418 4.14353 20.6708 4.05292C20.3997 3.9623 20.1124 3.93082 19.8282 3.96059C19.544 3.99037 19.2694 4.08071 19.0231 4.22553C18.7767 4.37035 18.5642 4.56629 18.4 4.80014C17 4.30014 14.6 4.00014 12 4.00014C9.39996 4.00014 7.09996 4.30014 5.59996 4.80014C5.4357 4.56629 5.22323 4.37035 4.97686 4.22553C4.73049 4.08071 4.45595 3.99037 4.17172 3.96059C3.8875 3.93082 3.6002 3.9623 3.32916 4.05292C3.05813 4.14353 2.80967 4.29118 2.60051 4.48592C2.39135 4.68065 2.22635 4.91795 2.11663 5.18183C2.0069 5.44571 1.95501 5.73003 1.96443 6.01566C1.97386 6.30128 2.04438 6.58157 2.17126 6.83764C2.29813 7.09371 2.47842 7.31962 2.69996 7.50014C1.70939 10.4184 1.70939 13.5819 2.69996 16.5001C2.47842 16.6807 2.29813 16.9066 2.17126 17.1626C2.04438 17.4187 1.97386 17.699 1.96443 17.9846C1.95501 18.2703 2.0069 18.5546 2.11663 18.8185C2.22635 19.0823 2.39135 19.3196 2.60051 19.5144C2.80967 19.7091 3.05813 19.8568 3.32916 19.9474C3.6002 20.038 3.8875 20.0695 4.17172 20.0397C4.45595 20.0099 4.73049 19.9196 4.97686 19.7748C5.22323 19.6299 5.4357 19.434 5.59996 19.2001C7.09996 19.7001 9.39996 20.0001 12 20.0001C14.6 20.0001 17 19.7001 18.4 19.2001C18.5642 19.434 18.7767 19.6299 19.0231 19.7748C19.2694 19.9196 19.544 20.0099 19.8282 20.0397C20.1124 20.0695 20.3997 20.038 20.6708 19.9474C20.9418 19.8568 21.1902 19.7091 21.3994 19.5144C21.6086 19.3196 21.7736 19.0823 21.8833 18.8185C21.993 18.5546 22.0449 18.2703 22.0355 17.9846C22.0261 17.699 21.9555 17.4187 21.8287 17.1626C21.7018 16.9066 21.5215 16.6807 21.3 16.5001C22.2905 13.5819 22.2905 10.4184 21.3 7.50014Z" stroke="black" stroke-width="2" stroke-linecap="round" stroke-linejoin="round"/>
</svg>
