<svg width="16" height="16" viewBox="0 0 16 16" fill="none" xmlns="http://www.w3.org/2000/svg">
<path d="M8 1.33337C11.682 1.33337 14.6667 4.31804 14.6667 8.00004C14.6667 11.682 11.682 14.6667 8 14.6667C4.318 14.6667 1.33334 11.682 1.33334 8.00004C1.33334 4.31804 4.318 1.33337 8 1.33337ZM8 2.66671C6.58551 2.66671 5.22896 3.22861 4.22877 4.2288C3.22857 5.229 2.66667 6.58555 2.66667 8.00004C2.66667 9.41453 3.22857 10.7711 4.22877 11.7713C5.22896 12.7715 6.58551 13.3334 8 13.3334C9.41449 13.3334 10.771 12.7715 11.7712 11.7713C12.7714 10.7711 13.3333 9.41453 13.3333 8.00004C13.3333 6.58555 12.7714 5.229 11.7712 4.2288C10.771 3.22861 9.41449 2.66671 8 2.66671ZM8 10.6667C8.17681 10.6667 8.34638 10.7369 8.47141 10.862C8.59643 10.987 8.66667 11.1566 8.66667 11.3334C8.66667 11.5102 8.59643 11.6798 8.47141 11.8048C8.34638 11.9298 8.17681 12 8 12C7.82319 12 7.65362 11.9298 7.5286 11.8048C7.40357 11.6798 7.33334 11.5102 7.33334 11.3334C7.33334 11.1566 7.40357 10.987 7.5286 10.862C7.65362 10.7369 7.82319 10.6667 8 10.6667ZM8 4.33337C8.56152 4.33339 9.10551 4.52894 9.53852 4.88644C9.97154 5.24394 10.2665 5.74106 10.3729 6.29243C10.4792 6.84379 10.3902 7.41497 10.1212 7.90785C9.85217 8.40073 9.41991 8.78455 8.89867 8.99337C8.82146 9.02176 8.75187 9.06762 8.69534 9.12737C8.666 9.16071 8.66134 9.20337 8.662 9.24737L8.66667 9.33337C8.66648 9.50329 8.60142 9.66673 8.48477 9.79029C8.36812 9.91384 8.2087 9.9882 8.03907 9.99816C7.86945 10.0081 7.70242 9.95292 7.57211 9.84386C7.44181 9.7348 7.35807 9.5801 7.338 9.41137L7.33334 9.33337V9.16671C7.33334 8.39804 7.95334 7.93671 8.40267 7.75604C8.58555 7.68301 8.74507 7.56155 8.86413 7.4047C8.98318 7.24784 9.05725 7.06152 9.0784 6.86575C9.09955 6.66997 9.06696 6.47213 8.98415 6.29347C8.90134 6.11481 8.77143 5.96208 8.60836 5.85169C8.4453 5.7413 8.25524 5.67741 8.05861 5.66689C7.86197 5.65636 7.66618 5.6996 7.49227 5.79195C7.31835 5.88431 7.17287 6.0223 7.07147 6.19109C6.97006 6.35989 6.91654 6.55312 6.91667 6.75004C6.91667 6.92685 6.84643 7.09642 6.72141 7.22145C6.59638 7.34647 6.42681 7.41671 6.25 7.41671C6.07319 7.41671 5.90362 7.34647 5.7786 7.22145C5.65357 7.09642 5.58334 6.92685 5.58334 6.75004C5.58334 6.1091 5.83795 5.49441 6.29116 5.0412C6.74437 4.58799 7.35906 4.33337 8 4.33337Z" fill="black"/>
</svg>
