<svg width="1440" height="181" viewBox="0 0 1440 181" fill="none" xmlns="http://www.w3.org/2000/svg">
<g clip-path="url(#clip0_347_863)">
<path d="M380.067 104.905H361.714C359.982 110.918 359.739 169.132 361.319 176.967C367.244 177.422 373.261 177.878 379.915 178.364V211.312H360.255V246.447H319.629C318.413 235.089 319.841 223.55 318.687 211.312C307.808 210.492 297.082 210.492 285.687 211.251V246.325H244.179V211.403H210.785C209.356 222.76 210.754 234.3 209.994 246.841C203.006 246.841 196.29 246.872 189.575 246.902C183.011 246.902 176.478 246.902 168.851 246.902V211.099C157.092 210.826 146.396 210.37 134.94 211.373V246.386H93.4322V211.373H59.7033V245.536C54.1729 247.175 29.3472 247.509 18.6208 246.173V211.616C7.2867 210.158 -3.37891 210.887 -14.9561 211.008V246.386H-56.7982V211.282H-90.4056V246.477H-131.61C-132.886 235.211 -131.61 223.671 -132.339 211.464C-143.491 210.37 -154.187 210.765 -165.946 211.16V246.568H-207.333V211.342H-240.697V246.356C-248.081 247.388 -254.826 246.811 -261.542 246.902C-268.105 246.993 -274.669 246.902 -281.931 246.902C-283.42 235.18 -281.749 223.611 -282.995 211.312H-301.439V178.546C-295.423 178.121 -289.467 177.695 -283.055 177.21V105.179H-301.5V71.8357H-282.508C-282.508 68.2524 -282.508 65.7623 -282.508 63.3025C-282.508 49.6677 -282.508 36.0632 -282.508 22.4284C-282.508 14.5937 -279.804 8.12546 -273.058 3.69186C-266.616 -0.529165 -259.688 -1.28834 -252.882 2.23424C-246.045 5.7872 -241.274 11.2836 -241.213 19.5131C-241.122 33.3909 -241.183 47.2687 -241.153 61.1465C-241.153 64.1528 -241.153 67.1288 -241.153 70.3477C-235.592 72.5038 -230.244 71.5017 -225.078 71.6839C-219.791 71.8661 -214.473 71.7142 -208.214 71.7142C-207.94 68.3435 -207.424 64.9727 -207.393 61.5716C-207.272 49.4551 -207.393 37.369 -207.241 25.2525C-207.211 22.0032 -207.029 18.6629 -206.299 15.5047C-204.112 6.03013 -195.178 -0.438064 -185.515 0.199646C-175.336 0.837355 -166.979 8.30767 -166.524 18.3592C-165.885 32.9658 -166.007 47.6027 -165.825 62.2397C-165.794 65.1853 -165.825 68.1613 -165.825 71.5624H-132.43C-132.308 68.6775 -132.126 66.0356 -132.096 63.3936C-132.065 48.9996 -132.248 34.636 -131.974 20.2723C-131.792 10.7978 -126.14 3.78297 -117.51 1.14103C-104.9 -2.74596 -91.378 6.1516 -90.8918 19.3006C-90.3448 33.9071 -90.6183 48.5745 -90.5272 63.1811C-90.5272 65.6712 -90.5272 68.1309 -90.5272 71.2283H-57.406C-57.1629 68.8293 -56.7678 66.9162 -56.7678 65.0031C-56.7071 52.4007 -56.7679 39.768 -56.7071 27.1656C-56.7071 23.886 -56.5855 20.6064 -56.1297 17.3571C-54.7927 8.0951 -47.6519 1.32323 -38.4752 0.26038C-29.2378 -0.802469 -19.9091 4.75471 -17.0224 13.6523C-15.8069 17.4178 -15.3208 21.5477 -15.26 25.5258C-15.0473 37.8852 -15.1688 50.2447 -15.1688 62.6041C-15.1688 65.0942 -15.1688 67.5843 -15.1688 70.7121H17.9523C18.0739 68.0702 18.2866 65.6104 18.2866 63.1507C18.317 49.03 18.165 34.8789 18.3777 20.7582C18.5297 10.4637 24.9716 2.84159 34.6649 0.68552C47.0018 -2.07789 59.1563 6.94115 59.4298 19.5739C59.764 33.6946 59.521 47.8153 59.5513 61.9664C59.5513 64.6994 59.5513 67.4325 59.5513 70.7121H92.4294C92.6118 69.2241 93.0068 67.3414 93.0068 65.4586C93.0979 52.34 93.0068 39.2214 93.1891 26.1028C93.2195 22.6106 93.5537 19.0273 94.4045 15.6261C96.7443 6.0605 105.556 -0.407697 115.067 0.0781772C125.064 0.594418 133.39 8.06473 134.302 18.1466C134.97 25.4044 134.788 32.7532 134.849 40.0717C134.91 50.1232 134.849 60.1747 134.849 70.9247H168.669C168.669 67.311 168.669 63.8795 168.669 60.4176C168.669 47.0561 168.517 33.6642 168.76 20.3027C168.942 11.0103 173.835 4.51178 182.525 1.3536C195.561 -3.41404 209.539 5.9694 209.934 19.9686C210.359 34.3323 210.116 48.7263 210.207 63.1203C210.207 65.5801 210.42 68.0398 210.541 70.8943H243.176C243.42 68.9812 243.845 67.068 243.845 65.1853C243.936 52.5829 243.906 39.9502 243.997 27.3479C243.997 24.0682 244.118 20.7886 244.574 17.5393C245.911 7.70032 253.66 0.715887 263.566 0.138911C272.773 -0.37733 281.858 5.81756 284.289 14.6848C285.201 18.0555 285.565 21.6388 285.596 25.1311C285.748 37.7334 285.657 50.3661 285.657 62.9685C285.657 65.4282 285.657 67.888 285.657 70.8943H318.656C318.808 68.556 319.112 66.3696 319.112 64.1832C319.142 50.5483 319.021 36.9439 319.203 23.309C319.264 19.8472 319.659 16.2031 320.814 12.9538C323.792 4.69398 332.512 -0.559532 341.142 0.138911C350.349 0.898089 358.007 7.48775 359.708 16.4157C360.225 19.1184 360.255 21.9425 360.286 24.7059C360.346 37.3083 360.286 49.941 360.286 62.5434C360.286 65.2764 360.286 68.0094 360.286 71.5017H380.006V104.814L380.067 104.905ZM-133.25 177.483C-131.731 169.466 -132.096 109.703 -133.494 105.331H-165.855C-165.703 129.594 -166.037 153.311 -165.582 177.483H-133.22H-133.25ZM318.808 177.27V105.391H286.173V177.27H318.808ZM167.757 177.179C169.398 168.737 168.851 110.129 167.119 105.391H135.365V177.179H167.757ZM-207.819 177.27V104.845C-213.866 104.845 -219.122 104.632 -224.379 104.905C-229.788 105.179 -235.379 103.843 -240.514 106.029C-241.912 118.449 -241.396 171.652 -239.755 177.27H-207.788H-207.819ZM92.6725 177.392V104.784C81.3992 105.118 70.7031 104.298 59.6121 105.361C59.6729 129.807 59.521 153.341 59.6729 177.361H92.7029L92.6725 177.392ZM-90.1321 105.3V176.967H-57.2236V105.3H-90.1321ZM-14.6827 105.391V177.088C-3.56123 177.483 7.13478 177.513 18.0131 177.088V105.391H-14.6827ZM210.663 176.906H243.541V105.331H210.663V176.906Z" fill="#147B42"/>
<path d="M1061.63 104.905H1043.28C1041.55 110.918 1041.31 169.132 1042.89 176.967C1048.81 177.422 1054.83 177.878 1061.48 178.364V211.312H1041.82V246.447H1001.2C999.98 235.089 1001.41 223.55 1000.25 211.312C989.375 210.492 978.649 210.492 967.254 211.251V246.325H925.746V211.403H892.352C890.923 222.76 892.321 234.3 891.562 246.841C884.573 246.841 877.857 246.872 871.142 246.902C864.578 246.902 858.045 246.902 850.418 246.902V211.099C838.659 210.826 827.963 210.37 816.507 211.373V246.386H774.999V211.373H741.27V245.536C735.74 247.175 710.914 247.509 700.188 246.173V211.616C688.854 210.158 678.188 210.887 666.611 211.008V246.386H624.769V211.282H591.161V246.477H549.958C548.681 235.211 549.958 223.671 549.228 211.464C538.077 210.37 527.381 210.765 515.621 211.16V246.568H474.235V211.342H440.87V246.356C433.487 247.388 426.741 246.811 420.025 246.902C413.462 246.993 406.898 246.902 399.636 246.902C398.147 235.18 399.818 223.611 398.573 211.312H380.098V178.546C386.114 178.121 392.07 177.695 398.481 177.21V105.179H380.006V71.8357H398.998C398.998 68.2524 398.998 65.7623 398.998 63.3025C398.998 49.6677 398.998 36.0632 398.998 22.4284C398.998 14.5937 401.702 8.12546 408.448 3.69186C414.89 -0.529165 421.818 -1.28834 428.625 2.23424C435.462 5.7872 440.232 11.2836 440.293 19.5131C440.384 33.3909 440.323 47.2687 440.354 61.1465C440.354 64.1528 440.354 67.1288 440.354 70.3477C445.915 72.5038 451.263 71.5017 456.428 71.6839C461.715 71.8661 467.033 71.7142 473.293 71.7142C473.566 68.3435 474.083 64.9727 474.113 61.5716C474.235 49.4551 474.113 37.369 474.265 25.2525C474.295 22.0032 474.478 18.6629 475.207 15.5047C477.395 6.03013 486.328 -0.438064 495.991 0.199646C506.171 0.837355 514.527 8.30767 514.983 18.3592C515.621 32.9658 515.499 47.6027 515.682 62.2397C515.712 65.1853 515.682 68.1613 515.682 71.5624H549.076C549.198 68.6775 549.38 66.0356 549.411 63.3936C549.441 48.9996 549.259 34.636 549.532 20.2723C549.714 10.7978 555.366 3.78297 563.996 1.14103C576.606 -2.74596 590.128 6.1516 590.615 19.3006C591.162 33.9071 590.888 48.5745 590.979 63.1811C590.979 65.6712 590.979 68.1309 590.979 71.2283H624.1C624.344 68.8293 624.739 66.9162 624.739 65.0031C624.799 52.4007 624.739 39.768 624.799 27.1656C624.799 23.886 624.921 20.6064 625.377 17.3571C626.714 8.0951 633.854 1.32323 643.031 0.26038C652.269 -0.802469 661.597 4.75471 664.484 13.6523C665.699 17.4178 666.186 21.5477 666.246 25.5258C666.459 37.8852 666.338 50.2447 666.338 62.6041C666.338 65.0942 666.338 67.5843 666.338 70.7121H699.459C699.58 68.0702 699.793 65.6104 699.793 63.1507C699.823 49.03 699.671 34.8789 699.884 20.7582C700.036 10.4637 706.478 2.84159 716.171 0.68552C728.508 -2.07789 740.663 6.94115 740.936 19.5739C741.27 33.6946 741.027 47.8153 741.058 61.9664C741.058 64.6994 741.058 67.4325 741.058 70.7121H773.936C774.118 69.2241 774.513 67.3414 774.513 65.4586C774.604 52.34 774.513 39.2214 774.696 26.1028C774.726 22.6106 775.06 19.0273 775.911 15.6261C778.251 6.0605 787.063 -0.407697 796.574 0.0781772C806.571 0.594418 814.897 8.06473 815.808 18.1466C816.477 25.4044 816.295 32.7532 816.355 40.0717C816.416 50.1232 816.355 60.1747 816.355 70.9247H850.175C850.175 67.311 850.175 63.8795 850.175 60.4176C850.175 47.0561 850.023 33.6642 850.266 20.3027C850.449 11.0103 855.341 4.51178 864.031 1.3536C877.067 -3.41404 891.045 5.9694 891.44 19.9686C891.865 34.3323 891.622 48.7263 891.713 63.1203C891.713 65.5801 891.926 68.0398 892.048 70.8943H924.683C924.926 68.9812 925.351 67.068 925.351 65.1853C925.442 52.5829 925.412 39.9502 925.503 27.3479C925.503 24.0682 925.625 20.7886 926.081 17.5393C927.418 7.70032 935.166 0.715887 945.072 0.138911C954.279 -0.37733 963.365 5.81756 965.796 14.6848C966.707 18.0555 967.072 21.6388 967.102 25.1311C967.254 37.7334 967.163 50.3661 967.163 62.9685C967.163 65.4282 967.163 67.888 967.163 70.8943H1000.16C1000.31 68.556 1000.62 66.3696 1000.62 64.1832C1000.65 50.5483 1000.53 36.9439 1000.71 23.309C1000.77 19.8472 1001.17 16.2031 1002.32 12.9538C1005.3 4.69398 1014.02 -0.559532 1022.65 0.138911C1031.86 0.898089 1039.51 7.48775 1041.21 16.4157C1041.73 19.1184 1041.76 21.9425 1041.79 24.7059C1041.85 37.3083 1041.79 49.941 1041.79 62.5434C1041.79 65.2764 1041.79 68.0094 1041.79 71.5017H1061.51V104.814L1061.63 104.905ZM548.317 177.483C549.836 169.466 549.471 109.703 548.074 105.331H515.712C515.864 129.594 515.53 153.311 515.986 177.483H548.347H548.317ZM1000.38 177.27V105.391H967.74V177.27H1000.38ZM849.325 177.179C850.965 168.737 850.418 110.129 848.686 105.391H816.933V177.179H849.325ZM473.749 177.27V104.845C467.702 104.845 462.445 104.632 457.188 104.905C451.779 105.179 446.188 103.843 441.053 106.029C439.655 118.449 440.171 171.652 441.812 177.27H473.779H473.749ZM774.24 177.392V104.784C762.966 105.118 752.27 104.298 741.179 105.361C741.24 129.807 741.088 153.341 741.24 177.361H774.27L774.24 177.392ZM591.435 105.3V176.967H624.343V105.3H591.435ZM666.884 105.391V177.088C678.006 177.483 688.702 177.513 699.58 177.088V105.391H666.884ZM892.23 176.906H925.108V105.331H892.23V176.906Z" fill="#147B42"/>
<path d="M1741.5 104.905H1723.15C1721.41 110.918 1721.17 169.132 1722.75 176.967C1728.68 177.422 1734.69 177.878 1741.35 178.364V211.312H1721.69V246.447H1681.06C1679.85 235.089 1681.27 223.55 1680.12 211.312C1669.24 210.492 1658.51 210.492 1647.12 211.251V246.325H1605.61V211.403H1572.22C1570.79 222.76 1572.19 234.3 1571.43 246.841C1564.44 246.841 1557.72 246.872 1551.01 246.902C1544.44 246.902 1537.91 246.902 1530.28 246.902V211.099C1518.52 210.826 1507.83 210.37 1496.37 211.373V246.386H1454.86V211.373H1421.14V245.536C1415.61 247.175 1390.78 247.509 1380.05 246.173V211.616C1368.72 210.158 1358.05 210.887 1346.48 211.008V246.386H1304.63V211.282H1271.03V246.477H1229.82C1228.55 235.211 1229.82 223.671 1229.09 211.464C1217.94 210.37 1207.25 210.765 1195.49 211.16V246.568H1154.1V211.342H1120.74V246.356C1113.35 247.388 1106.61 246.811 1099.89 246.902C1093.33 246.993 1086.76 246.902 1079.5 246.902C1078.01 235.18 1079.68 223.611 1078.44 211.312H1059.96V178.546C1065.98 178.121 1071.94 177.695 1078.35 177.21V105.179H1059.87V71.8357H1078.86C1078.86 68.2524 1078.86 65.7623 1078.86 63.3025C1078.86 49.6677 1078.86 36.0632 1078.86 22.4284C1078.86 14.5937 1081.57 8.12546 1088.31 3.69186C1094.76 -0.529165 1101.68 -1.28834 1108.49 2.23424C1115.33 5.7872 1120.1 11.2836 1120.16 19.5131C1120.25 33.3909 1120.19 47.2687 1120.22 61.1465C1120.22 64.1528 1120.22 67.1288 1120.22 70.3477C1125.78 72.5038 1131.13 71.5017 1136.29 71.6839C1141.58 71.8661 1146.9 71.7142 1153.16 71.7142C1153.43 68.3435 1153.95 64.9727 1153.98 61.5716C1154.1 49.4551 1153.98 37.369 1154.13 25.2525C1154.16 22.0032 1154.34 18.6629 1155.07 15.5047C1157.26 6.03013 1166.19 -0.438064 1175.86 0.199646C1186.04 0.837355 1194.39 8.30767 1194.85 18.3592C1195.49 32.9658 1195.36 47.6027 1195.55 62.2397C1195.58 65.1853 1195.55 68.1613 1195.55 71.5624H1228.94C1229.06 68.6775 1229.25 66.0356 1229.28 63.3936C1229.31 48.9996 1229.12 34.636 1229.4 20.2723C1229.58 10.7978 1235.23 3.78297 1243.86 1.14103C1256.47 -2.74596 1269.99 6.1516 1270.48 19.3006C1271.03 33.9071 1270.75 48.5745 1270.84 63.1811C1270.84 65.6712 1270.84 68.1309 1270.84 71.2283H1303.97C1304.21 68.8293 1304.6 66.9162 1304.6 65.0031C1304.66 52.4007 1304.6 39.768 1304.66 27.1656C1304.66 23.886 1304.79 20.6064 1305.24 17.3571C1306.58 8.0951 1313.72 1.32323 1322.9 0.26038C1332.13 -0.802469 1341.46 4.75471 1344.35 13.6523C1345.57 17.4178 1346.05 21.5477 1346.11 25.5258C1346.32 37.8852 1346.2 50.2447 1346.2 62.6041C1346.2 65.0942 1346.2 67.5843 1346.2 70.7121H1379.32C1379.45 68.0702 1379.66 65.6104 1379.66 63.1507C1379.69 49.03 1379.54 34.8789 1379.75 20.7582C1379.9 10.4637 1386.34 2.84159 1396.04 0.68552C1408.37 -2.07789 1420.53 6.94115 1420.8 19.5739C1421.14 33.6946 1420.89 47.8153 1420.92 61.9664C1420.92 64.6994 1420.92 67.4325 1420.92 70.7121H1453.8C1453.98 69.2241 1454.38 67.3414 1454.38 65.4586C1454.47 52.34 1454.38 39.2214 1454.56 26.1028C1454.59 22.6106 1454.93 19.0273 1455.78 15.6261C1458.12 6.0605 1466.93 -0.407697 1476.44 0.0781772C1486.44 0.594418 1494.76 8.06473 1495.67 18.1466C1496.34 25.4044 1496.16 32.7532 1496.22 40.0717C1496.28 50.1232 1496.22 60.1747 1496.22 70.9247H1530.04C1530.04 67.311 1530.04 63.8795 1530.04 60.4176C1530.04 47.0561 1529.89 33.6642 1530.13 20.3027C1530.31 11.0103 1535.21 4.51178 1543.9 1.3536C1556.93 -3.41404 1570.91 5.9694 1571.31 19.9686C1571.73 34.3323 1571.49 48.7263 1571.58 63.1203C1571.58 65.5801 1571.79 68.0398 1571.91 70.8943H1604.55C1604.79 68.9812 1605.22 67.068 1605.22 65.1853C1605.31 52.5829 1605.28 39.9502 1605.37 27.3479C1605.37 24.0682 1605.49 20.7886 1605.95 17.5393C1607.28 7.70032 1615.03 0.715887 1624.94 0.138911C1634.14 -0.37733 1643.23 5.81756 1645.66 14.6848C1646.57 18.0555 1646.94 21.6388 1646.97 25.1311C1647.12 37.7334 1647.03 50.3661 1647.03 62.9685C1647.03 65.4282 1647.03 67.888 1647.03 70.8943H1680.03C1680.18 68.556 1680.48 66.3696 1680.48 64.1832C1680.51 50.5483 1680.39 36.9439 1680.58 23.309C1680.64 19.8472 1681.03 16.2031 1682.19 12.9538C1685.16 4.69398 1693.88 -0.559532 1702.51 0.138911C1711.72 0.898089 1719.38 7.48775 1721.08 16.4157C1721.6 19.1184 1721.63 21.9425 1721.66 24.7059C1721.72 37.3083 1721.66 49.941 1721.66 62.5434C1721.66 65.2764 1721.66 68.0094 1721.66 71.5017H1741.38V104.814L1741.5 104.905ZM1228.18 177.483C1229.7 169.466 1229.34 109.703 1227.94 105.331H1195.58C1195.73 129.594 1195.4 153.311 1195.85 177.483H1228.21H1228.18ZM1680.24 177.27V105.391H1647.61V177.27H1680.24ZM1529.19 177.179C1530.83 168.737 1530.28 110.129 1528.55 105.391H1496.8V177.179H1529.19ZM1153.61 177.27V104.845C1147.57 104.845 1142.31 104.632 1137.05 104.905C1131.64 105.179 1126.05 103.843 1120.92 106.029C1119.52 118.449 1120.04 171.652 1121.68 177.27H1153.64H1153.61ZM1454.11 177.392V104.784C1442.83 105.118 1432.14 104.298 1421.04 105.361C1421.11 129.807 1420.95 153.341 1421.11 177.361H1454.14L1454.11 177.392ZM1271.3 105.3V176.967H1304.21V105.3H1271.3ZM1346.75 105.391V177.088C1357.87 177.483 1368.57 177.513 1379.45 177.088V105.391H1346.75ZM1572.1 176.906H1604.97V105.331H1572.1V176.906Z" fill="#147B42"/>
</g>
<defs>
<clipPath id="clip0_347_863">
<rect width="1590" height="181" fill="white" transform="translate(-75)"/>
</clipPath>
</defs>
</svg>
