<svg width="24" height="24" viewBox="0 0 24 24" fill="none" xmlns="http://www.w3.org/2000/svg">
<path d="M9.10403 17.5C8.33403 16.572 8.42403 15.199 8.69803 14.316C13.175 16.5 13.759 12.5 13.423 11.5C14.928 12.5 16.388 15.919 14.837 17.5" stroke="black" stroke-width="1.5" stroke-linecap="round" stroke-linejoin="round"/>
<path d="M8.816 17.5C5.592 16.429 4.77 11.548 6.13 8.92902C7.125 11.07 8.75 11.07 8.75 11.07C7.667 6.78502 9.833 3.57002 14.01 2.49902C13.192 4.00002 12.537 6.34502 14.197 7.84802C14.549 7.17902 15.73 5.71302 17.417 5.71302C17.417 5.71302 16.12 8.01502 17.527 10.021C19.152 12.336 18.736 15.784 16.32 17.499M3.556 17.5H2.5M20.444 17.5H21.5M20.5 17.5H3.5L4.16 19.985C4.495 21.245 4.841 21.5 6.222 21.5H17.778C19.158 21.5 19.505 21.245 19.84 19.985L20.5 17.5Z" stroke="black" stroke-width="1.5" stroke-linecap="round" stroke-linejoin="round"/>
</svg>
