<svg width="77" height="51" viewBox="0 0 77 51" fill="none" xmlns="http://www.w3.org/2000/svg">
<path d="M3.84648 0.905273C4.78861 0.905398 5.69794 1.25129 6.40198 1.87734C7.10602 2.50339 7.55581 3.36606 7.66604 4.30172L7.69296 4.75176V27.8306H30.7719V8.59824C30.772 7.65611 31.1179 6.74678 31.7439 6.04274C32.37 5.3387 33.2326 4.88891 34.1683 4.77868L34.6183 4.75176H65.3902C68.3336 4.75159 71.1657 5.87618 73.3073 7.89542C75.4488 9.91467 76.7377 12.6759 76.9104 15.6142L76.9296 16.2912V47.0631C76.9285 48.0434 76.5531 48.9864 75.8801 49.6993C75.2071 50.4122 74.2873 50.8412 73.3086 50.8987C72.3299 50.9561 71.3662 50.6377 70.6144 50.0084C69.8626 49.3792 69.3794 48.4866 69.2636 47.5131L69.2367 47.0631V35.5236H7.69296V47.0631C7.69188 48.0434 7.31647 48.9864 6.64346 49.6993C5.97044 50.4122 5.05061 50.8412 4.07191 50.8987C3.0932 50.9561 2.12949 50.6377 1.37768 50.0084C0.625878 49.3792 0.142718 48.4866 0.0269253 47.5131L0 47.0631V4.75176C0 3.7316 0.405253 2.75324 1.12661 2.03188C1.84796 1.31053 2.82633 0.905273 3.84648 0.905273Z" fill="black"/>
<path d="M19.2324 8.59814C20.7292 8.59862 22.1934 9.03576 23.4455 9.85599C24.6976 10.6762 25.6832 11.8439 26.2816 13.216C26.8799 14.588 27.065 16.1048 26.8141 17.5805C26.5632 19.0561 25.8873 20.4265 24.8692 21.5238C23.8511 22.621 22.5349 23.3974 21.0821 23.7578C19.6293 24.1182 18.1029 24.0469 16.69 23.5527C15.2771 23.0585 14.0391 22.1628 13.1277 20.9755C12.2162 19.7881 11.6709 18.3607 11.5587 16.8681L11.5394 16.2911L11.5587 15.7141C11.7042 13.7788 12.576 11.9699 13.9991 10.6502C15.4222 9.33054 17.2916 8.59753 19.2324 8.59814Z" fill="black"/>
</svg>
