<svg width="24" height="24" viewBox="0 0 24 24" fill="none" xmlns="http://www.w3.org/2000/svg">
<path fill-rule="evenodd" clip-rule="evenodd" d="M10.586 2.49993C10.9399 2.14598 11.4137 1.9376 11.9138 1.91594C12.4138 1.89428 12.9038 2.06091 13.287 2.38293L13.414 2.49993L15.041 4.12593L15.215 3.88393L15.53 3.43093L15.735 3.12293L15.941 2.79393C16.249 2.31393 16.618 1.85693 17.267 2.03593C17.4579 2.08875 17.6288 2.19707 17.7581 2.34715C17.8873 2.49723 17.9691 2.68231 17.993 2.87893L18 2.99993V8.99993C18.0004 10.377 17.527 11.7123 16.6593 12.7817C15.7917 13.8511 14.5826 14.5895 13.235 14.8729L13 14.9169V18.9169C13.9518 18.7554 14.8507 18.367 15.6206 17.7846C16.3904 17.2022 17.0087 16.4429 17.423 15.5709C17.4794 15.4523 17.5585 15.3459 17.656 15.2578C17.7534 15.1698 17.8673 15.1018 17.991 15.0577C18.1147 15.0136 18.2459 14.9944 18.3771 15.001C18.5083 15.0077 18.6369 15.0401 18.7555 15.0964C18.8742 15.1528 18.9806 15.2319 19.0686 15.3294C19.1567 15.4268 19.2247 15.5407 19.2687 15.6644C19.3128 15.7881 19.3321 15.9193 19.3254 16.0505C19.3188 16.1817 19.2864 16.3103 19.23 16.4289C18.6542 17.6437 17.7816 18.6939 16.6927 19.4823C15.6039 20.2707 14.3338 20.772 13 20.9399C13 21.5059 12.593 22.0009 12 22.0009C11.407 22.0009 11 21.5059 11 20.9389C9.66639 20.7712 8.39652 20.2702 7.30766 19.4821C6.2188 18.6941 5.34606 17.6444 4.77002 16.4299C4.65624 16.1903 4.64231 15.9153 4.7313 15.6654C4.82028 15.4155 5.00489 15.2112 5.24452 15.0974C5.48414 14.9836 5.75915 14.9697 6.00904 15.0587C6.25893 15.1477 6.46324 15.3323 6.57702 15.5719C6.97258 16.4047 7.55441 17.1352 8.2775 17.7071C9.00059 18.279 9.84556 18.6769 10.747 18.8699L11 18.9179V14.9179C9.6436 14.6887 8.40716 14.0003 7.49781 12.968C6.58847 11.9358 6.06144 10.6224 6.00502 9.24793L6.00002 8.99993V2.99993C5.99995 2.78119 6.0716 2.56847 6.204 2.39435C6.33639 2.22024 6.52222 2.09433 6.73302 2.03593C7.33002 1.87093 7.69202 2.24793 7.98702 2.68493L8.33202 3.22693L8.47002 3.43093L8.78502 3.88393L8.95902 4.12593L10.586 2.49993ZM16 6.16293C15.488 6.79993 14.889 7.46693 14.265 7.98693C13.67 8.48293 12.872 8.99993 12 8.99993C11.128 8.99993 10.33 8.48293 9.73502 7.98693C9.21502 7.55393 8.71302 7.01893 8.26302 6.48393L8.00002 6.16393V8.99993C8 10.0435 8.40781 11.0457 9.13642 11.7928C9.86503 12.5399 10.8568 12.9726 11.9 12.9987C12.9432 13.0248 13.9553 12.6422 14.7204 11.9325C15.4854 11.2228 15.9429 10.2422 15.995 9.19993L16 8.99993V6.16293ZM12 3.91393L10.226 5.68793L10.611 6.10793C11.011 6.53193 11.522 6.99993 12 6.99993C12.478 6.99993 12.99 6.53193 13.39 6.10793L13.774 5.68793L12 3.91393Z" fill="black"/>
</svg>
