<svg width="24" height="24" viewBox="0 0 24 24" fill="none" xmlns="http://www.w3.org/2000/svg">
<path d="M8 10C9.10457 10 10 9.10457 10 8C10 6.89543 9.10457 6 8 6C6.89543 6 6 6.89543 6 8C6 9.10457 6.89543 10 8 10Z" stroke="black" stroke-width="2" stroke-linecap="round" stroke-linejoin="round"/>
<path d="M18 11C18 11 11 14 8 14C6.4087 14 4.88258 13.3679 3.75736 12.2426C2.63214 11.1174 2 9.5913 2 8C2 6.4087 2.63214 4.88258 3.75736 3.75736C4.88258 2.63214 6.4087 2 8 2C11 2 18 5 18 5M18 11V5M18 11L22 13V3L18 5" stroke="black" stroke-width="2" stroke-linecap="round" stroke-linejoin="round"/>
<path d="M7 13.9L7.8 19C7.9 19.5 8.4 20 9 20H11C11.6 20 11.9 19.6 11.8 19L10.9 13.5M11.64 18C11.64 18 14.94 16 18.94 16C19.4704 16 19.9791 16.2107 20.3542 16.5858C20.7293 16.9609 20.94 17.4696 20.94 18C20.94 18.5304 20.7293 19.0391 20.3542 19.4142C19.9791 19.7893 19.4704 20 18.94 20H17C16.4696 20 15.9609 20.2107 15.5858 20.5858C15.2107 20.9609 15 21.4696 15 22" stroke="black" stroke-width="2" stroke-linecap="round" stroke-linejoin="round"/>
</svg>
