<svg width="24" height="24" viewBox="0 0 24 24" fill="none" xmlns="http://www.w3.org/2000/svg">
<path d="M7.10003 21C6.8167 21 6.57103 20.8917 6.36303 20.675C6.15503 20.4583 6.06737 20.2083 6.10003 19.925L7.00003 10.05L6.20003 5.325C6.1167 4.89167 6.22103 4.396 6.51303 3.838C6.80503 3.28 7.4507 3.00067 8.45003 3C9.43337 3 10.296 3.31667 11.038 3.95C11.78 4.58333 12.234 5.38333 12.4 6.35L12.85 9H17C17.2834 9 17.521 9.096 17.713 9.288C17.905 9.48 18.0007 9.71733 18 10C17.9994 10.2827 17.9034 10.5203 17.712 10.713C17.5207 10.9057 17.2834 11.0013 17 11H16.1L16.9 19.925C16.9334 20.2083 16.85 20.4583 16.65 20.675C16.45 20.8917 16.2 21 15.9 21C15.6334 21 15.4127 20.9127 15.238 20.738C15.0634 20.5633 14.959 20.3507 14.925 20.1L14.825 19H8.17503L8.07503 20.1C8.0417 20.35 7.9377 20.5627 7.76303 20.738C7.58837 20.9133 7.36737 21.0007 7.10003 21ZM8.45003 9H10.825L10.425 6.675C10.3417 6.19167 10.1127 5.79167 9.73803 5.475C9.36337 5.15833 8.93403 5 8.45003 5H8.17503L8.45003 9ZM8.35004 17H14.625L14.45 15H8.55003L8.35004 17ZM8.72504 13H14.275L14.075 11H8.90003L8.72504 13Z" fill="black"/>
</svg>
