<svg width="26" height="28" viewBox="0 0 26 28" fill="none" xmlns="http://www.w3.org/2000/svg">
<path d="M11.0774 0.863281C12.1045 -0.287775 13.895 -0.287777 14.9221 0.863281L25.3342 12.5332C26.7016 14.0668 25.8267 16.4298 23.9524 16.8174V25.3994C23.9522 26.8354 22.7959 28.0009 21.3684 28.001H18.5549C17.1285 28.001 15.9712 26.8355 15.9709 25.3994V19.6758C15.9709 18.9571 15.3927 18.3751 14.679 18.375H11.3215C10.6078 18.3751 10.0295 18.9572 10.0295 19.6758V25.3994C10.0293 26.8355 8.87203 28.001 7.44556 28.001H4.63208C3.20566 28.0009 2.04833 26.8354 2.0481 25.3994V16.8174C0.173688 16.4297 -0.701261 14.0668 0.667236 12.5332L11.0774 0.863281Z" fill="#FAFAFA"/>
</svg>
