<svg width="24" height="24" viewBox="0 0 24 24" fill="none" xmlns="http://www.w3.org/2000/svg">
<path d="M4 16H15V13H6C5.45 13 4.97933 13.196 4.588 13.588C4.19667 13.98 4.00067 14.4507 4 15V16ZM21 6C21.2833 6 21.521 6.096 21.713 6.288C21.905 6.48 22.0007 6.71733 22 7C21.9993 7.28267 21.9033 7.52033 21.712 7.713C21.5207 7.90567 21.2833 8.00133 21 8C20.7167 7.99867 20.4793 8.09467 20.288 8.288C20.0967 8.48133 20.0007 8.71867 20 9V13C20 13.8333 19.7083 14.5417 19.125 15.125C18.5417 15.7083 17.8333 16 17 16V17C17 17.2833 16.904 17.521 16.712 17.713C16.52 17.905 16.2827 18.0007 16 18H3C2.71667 18 2.47933 17.904 2.288 17.712C2.09667 17.52 2.00067 17.2827 2 17V15C2 13.9 2.39167 12.9583 3.175 12.175C3.95833 11.3917 4.9 11 6 11H15V10C15 9.71667 14.904 9.47933 14.712 9.288C14.52 9.09667 14.2827 9.00067 14 9H10C9.86667 9 9.73767 9.02933 9.613 9.088C9.48833 9.14667 9.384 9.21733 9.3 9.3C9.216 9.38267 9.112 9.44933 8.988 9.5C8.864 9.55067 8.73467 9.57567 8.6 9.575C8.31667 9.575 8.07933 9.479 7.888 9.287C7.69667 9.095 7.60067 8.858 7.6 8.576C7.6 8.44267 7.625 8.31367 7.675 8.189C7.725 8.06433 7.79167 7.96 7.875 7.876C8.15833 7.59267 8.47933 7.376 8.838 7.226C9.19667 7.076 9.584 7.00067 10 7H14C14.8333 7 15.5417 7.29167 16.125 7.875C16.7083 8.45833 17 9.16667 17 10V14C17.2833 14 17.521 13.9043 17.713 13.713C17.905 13.5217 18.0007 13.284 18 13V9C18 8.16667 18.2917 7.45833 18.875 6.875C19.4583 6.29167 20.1667 6 21 6Z" fill="black"/>
</svg>
