<svg width="24" height="24" viewBox="0 0 24 24" fill="none" xmlns="http://www.w3.org/2000/svg">
<path d="M6 11C4.93913 11 3.92172 10.5786 3.17157 9.82843C2.42143 9.07828 2 8.06087 2 7C2 5.93913 2.42143 4.92172 3.17157 4.17157C3.92172 3.42143 4.93913 3 6 3H20C20.5304 3 21.0391 3.21071 21.4142 3.58579C21.7893 3.96086 22 4.46957 22 5V9C22 9.53043 21.7893 10.0391 21.4142 10.4142C21.0391 10.7893 20.5304 11 20 11H6ZM6 11L18 21M6 21L18 11" stroke="black" stroke-width="2" stroke-linecap="round" stroke-linejoin="round"/>
</svg>
