<svg width="24" height="24" viewBox="0 0 24 24" fill="none" xmlns="http://www.w3.org/2000/svg">
<path d="M12.5 2.99995C7.79996 2.99995 3.99996 5.69995 3.99996 8.99995C3.99996 10.2 4.49996 11.3 5.39996 12.3C4.47786 13.5046 3.98506 14.983 3.99996 16.5V20C3.99996 21.1 4.89996 22 5.99996 22H19C19.5304 22 20.0391 21.7892 20.4142 21.4142C20.7892 21.0391 21 20.5304 21 20V16.5C21 15.3 20.7 14.1 20 13L22 11L19 7.99995L16.9 10.1C15.4631 9.3188 13.8439 8.93482 12.2092 8.98755C10.5746 9.04028 8.98353 9.52782 7.59996 10.4C7.22313 10.0307 7.00748 9.52749 6.99996 8.99995C6.99996 7.19995 9.49996 5.69995 12.5 5.69995C13.9 5.69995 15.3 6.09995 16.3 6.69995L18.3 4.69995C16.5883 3.54861 14.5624 2.95482 12.5 2.99995ZM12.5 11C16 11 19 14 19 16.5V20H5.99996V16.5C5.99996 14 8.99996 11 12.5 11ZM13 12.5C9.99996 12.5 7.99996 14 7.99996 17V18H9.99996V17C9.99996 16 9.99996 13.5 13 12.5Z" fill="black"/>
</svg>
