<svg width="16" height="16" viewBox="0 0 16 16" fill="none" xmlns="http://www.w3.org/2000/svg">
<path d="M5.33334 5.99996C5.14445 5.99996 4.98622 5.93596 4.85867 5.80796C4.73111 5.67996 4.66711 5.52174 4.66667 5.33329C4.66622 5.14485 4.73022 4.98663 4.85867 4.85863C4.98711 4.73063 5.14534 4.66663 5.33334 4.66663H13.3333C13.5222 4.66663 13.6807 4.73063 13.8087 4.85863C13.9367 4.98663 14.0004 5.14485 14 5.33329C13.9996 5.52174 13.9356 5.68018 13.808 5.80863C13.6804 5.93707 13.5222 6.00085 13.3333 5.99996H5.33334ZM5.33334 8.66663C5.14445 8.66663 4.98622 8.60263 4.85867 8.47463C4.73111 8.34663 4.66711 8.1884 4.66667 7.99996C4.66622 7.81151 4.73022 7.65329 4.85867 7.52529C4.98711 7.39729 5.14534 7.33329 5.33334 7.33329H13.3333C13.5222 7.33329 13.6807 7.39729 13.8087 7.52529C13.9367 7.65329 14.0004 7.81151 14 7.99996C13.9996 8.1884 13.9356 8.34685 13.808 8.47529C13.6804 8.60374 13.5222 8.66751 13.3333 8.66663H5.33334ZM5.33334 11.3333C5.14445 11.3333 4.98622 11.2693 4.85867 11.1413C4.73111 11.0133 4.66711 10.8551 4.66667 10.6666C4.66622 10.4782 4.73022 10.32 4.85867 10.192C4.98711 10.064 5.14534 9.99996 5.33334 9.99996H13.3333C13.5222 9.99996 13.6807 10.064 13.8087 10.192C13.9367 10.32 14.0004 10.4782 14 10.6666C13.9996 10.8551 13.9356 11.0135 13.808 11.142C13.6804 11.2704 13.5222 11.3342 13.3333 11.3333H5.33334ZM2.66667 5.99996C2.47778 5.99996 2.31956 5.93596 2.192 5.80796C2.06445 5.67996 2.00045 5.52174 2 5.33329C1.99956 5.14485 2.06356 4.98663 2.192 4.85863C2.32045 4.73063 2.47867 4.66663 2.66667 4.66663C2.85467 4.66663 3.01311 4.73063 3.142 4.85863C3.27089 4.98663 3.33467 5.14485 3.33334 5.33329C3.332 5.52174 3.268 5.68018 3.14134 5.80863C3.01467 5.93707 2.85645 6.00085 2.66667 5.99996ZM2.66667 8.66663C2.47778 8.66663 2.31956 8.60263 2.192 8.47463C2.06445 8.34663 2.00045 8.1884 2 7.99996C1.99956 7.81151 2.06356 7.65329 2.192 7.52529C2.32045 7.39729 2.47867 7.33329 2.66667 7.33329C2.85467 7.33329 3.01311 7.39729 3.142 7.52529C3.27089 7.65329 3.33467 7.81151 3.33334 7.99996C3.332 8.1884 3.268 8.34685 3.14134 8.47529C3.01467 8.60374 2.85645 8.66751 2.66667 8.66663ZM2.66667 11.3333C2.47778 11.3333 2.31956 11.2693 2.192 11.1413C2.06445 11.0133 2.00045 10.8551 2 10.6666C1.99956 10.4782 2.06356 10.32 2.192 10.192C2.32045 10.064 2.47867 9.99996 2.66667 9.99996C2.85467 9.99996 3.01311 10.064 3.142 10.192C3.27089 10.32 3.33467 10.4782 3.33334 10.6666C3.332 10.8551 3.268 11.0135 3.14134 11.142C3.01467 11.2704 2.85645 11.3342 2.66667 11.3333Z" fill="black"/>
</svg>
