<svg width="16" height="16" viewBox="0 0 16 16" fill="none" xmlns="http://www.w3.org/2000/svg">
<path fill-rule="evenodd" clip-rule="evenodd" d="M4.66667 4.66671C4.66667 2.82537 6.15867 1.33337 8 1.33337C9.84134 1.33337 11.3333 2.82537 11.3333 4.66671V6.66671H11.6C12.1867 6.66671 12.6667 7.14671 12.6667 7.73337V12.4C12.6667 13.28 11.9467 14 11.0667 14H4.93334C4.05334 14 3.33334 13.28 3.33334 12.4V7.73337C3.33334 7.14671 3.81334 6.66671 4.4 6.66671H4.66667V4.66671ZM10 4.66671V6.66671H6V4.66671C6 3.56137 6.89467 2.66671 8 2.66671C9.10534 2.66671 10 3.56137 10 4.66671ZM8 8.16671C7.7349 8.16643 7.4776 8.25645 7.27049 8.42195C7.06338 8.58744 6.91882 8.81854 6.8606 9.07718C6.80238 9.33582 6.83399 9.60657 6.95021 9.84484C7.06644 10.0831 7.26035 10.2747 7.5 10.388V12C7.5 12.1326 7.55268 12.2598 7.64645 12.3536C7.74022 12.4474 7.86739 12.5 8 12.5C8.13261 12.5 8.25979 12.4474 8.35356 12.3536C8.44732 12.2598 8.5 12.1326 8.5 12V10.388C8.73966 10.2747 8.93357 10.0831 9.04979 9.84484C9.16602 9.60657 9.19762 9.33582 9.13941 9.07718C9.08119 8.81854 8.93662 8.58744 8.72951 8.42195C8.52241 8.25645 8.26511 8.16643 8 8.16671Z" fill="black"/>
</svg>
