<svg width="16" height="16" viewBox="0 0 16 16" fill="none" xmlns="http://www.w3.org/2000/svg">
<path fill-rule="evenodd" clip-rule="evenodd" d="M13.1667 7.99996C13.1667 7.86735 13.114 7.74017 13.0202 7.64641C12.9265 7.55264 12.7993 7.49996 12.6667 7.49996H3.33334C3.20073 7.49996 3.07355 7.55264 2.97978 7.64641C2.88601 7.74017 2.83334 7.86735 2.83334 7.99996C2.83334 8.13257 2.88601 8.25974 2.97978 8.35351C3.07355 8.44728 3.20073 8.49996 3.33334 8.49996H12.6667C12.7993 8.49996 12.9265 8.44728 13.0202 8.35351C13.114 8.25974 13.1667 8.13257 13.1667 7.99996ZM13.1667 4.66663C13.1667 4.53402 13.114 4.40684 13.0202 4.31307C12.9265 4.2193 12.7993 4.16663 12.6667 4.16663H3.33334C3.20073 4.16663 3.07355 4.2193 2.97978 4.31307C2.88601 4.40684 2.83334 4.53402 2.83334 4.66663C2.83334 4.79923 2.88601 4.92641 2.97978 5.02018C3.07355 5.11395 3.20073 5.16663 3.33334 5.16663H12.6667C12.7993 5.16663 12.9265 5.11395 13.0202 5.02018C13.114 4.92641 13.1667 4.79923 13.1667 4.66663ZM13.1667 11.3333C13.1667 11.2007 13.114 11.0735 13.0202 10.9797C12.9265 10.886 12.7993 10.8333 12.6667 10.8333H3.33334C3.20073 10.8333 3.07355 10.886 2.97978 10.9797C2.88601 11.0735 2.83334 11.2007 2.83334 11.3333C2.83334 11.4659 2.88601 11.5931 2.97978 11.6868C3.07355 11.7806 3.20073 11.8333 3.33334 11.8333H12.6667C12.7993 11.8333 12.9265 11.7806 13.0202 11.6868C13.114 11.5931 13.1667 11.4659 13.1667 11.3333Z" fill="black"/>
</svg>
