<svg width="24" height="24" viewBox="0 0 24 24" fill="none" xmlns="http://www.w3.org/2000/svg">
<path d="M10.25 11C9.91667 11 9.60433 10.9377 9.313 10.813C9.02167 10.6883 8.734 10.534 8.45 10.35C8.33333 10.2667 8.221 10.1877 8.113 10.113C8.005 10.0383 7.884 10.0007 7.75 10C7.56667 10 7.40833 10.046 7.275 10.138C7.14167 10.23 7.01667 10.3423 6.9 10.475C6.8 10.6083 6.68333 10.7127 6.55 10.788C6.41667 10.8633 6.26667 10.9007 6.1 10.9C5.81667 10.9 5.57933 10.8043 5.388 10.613C5.19667 10.4217 5.10067 10.184 5.1 9.9C5.1 9.76667 5.125 9.63767 5.175 9.513C5.225 9.38833 5.29167 9.284 5.375 9.2C5.69167 8.85 6.05 8.56267 6.45 8.338C6.85 8.11333 7.28333 8.00067 7.75 8C8.08333 8 8.396 8.06667 8.688 8.2C8.98 8.33333 9.26733 8.49167 9.55 8.675C9.66667 8.75833 9.77933 8.83333 9.888 8.9C9.99667 8.96667 10.1173 9 10.25 9C10.55 9 10.8667 8.8 11.2 8.4C11.3 8.3 11.4083 8.225 11.525 8.175C11.6417 8.125 11.7667 8.1 11.9 8.1C12.1833 8.1 12.421 8.196 12.613 8.388C12.805 8.58 12.9007 8.81733 12.9 9.1C12.9 9.23333 12.875 9.36267 12.825 9.488C12.775 9.61333 12.7083 9.71733 12.625 9.8C12.3083 10.15 11.95 10.4373 11.55 10.662C11.15 10.8867 10.7167 10.9993 10.25 11ZM10.25 16C9.91667 16 9.60433 15.9377 9.313 15.813C9.02167 15.6883 8.734 15.534 8.45 15.35C8.33333 15.2667 8.221 15.1877 8.113 15.113C8.005 15.0383 7.884 15.0007 7.75 15C7.56667 15 7.40833 15.046 7.275 15.138C7.14167 15.23 7.01667 15.3423 6.9 15.475C6.8 15.6083 6.68333 15.7127 6.55 15.788C6.41667 15.8633 6.26667 15.9007 6.1 15.9C5.81667 15.9 5.57933 15.8043 5.388 15.613C5.19667 15.4217 5.10067 15.184 5.1 14.9C5.1 14.7667 5.125 14.6377 5.175 14.513C5.225 14.3883 5.29167 14.284 5.375 14.2C5.69167 13.85 6.05 13.5627 6.45 13.338C6.85 13.1133 7.28333 13.0007 7.75 13C8.08333 13 8.396 13.0667 8.688 13.2C8.98 13.3333 9.26733 13.4917 9.55 13.675C9.66667 13.7583 9.77933 13.8333 9.888 13.9C9.99667 13.9667 10.1173 14 10.25 14C10.45 14 10.625 13.9333 10.775 13.8C10.925 13.6667 11.0667 13.5333 11.2 13.4C11.3 13.3 11.4083 13.225 11.525 13.175C11.6417 13.125 11.7667 13.1 11.9 13.1C12.1833 13.1 12.421 13.196 12.613 13.388C12.805 13.58 12.9007 13.8173 12.9 14.1C12.9 14.2333 12.875 14.3627 12.825 14.488C12.775 14.6133 12.7083 14.7173 12.625 14.8C12.3083 15.15 11.95 15.4377 11.55 15.663C11.15 15.8883 10.7167 16.0007 10.25 16ZM4 20C3.45 20 2.97933 19.8043 2.588 19.413C2.19667 19.0217 2.00067 18.5507 2 18V6C2 5.45 2.196 4.97933 2.588 4.588C2.98 4.19667 3.45067 4.00067 4 4H20C20.55 4 21.021 4.196 21.413 4.588C21.805 4.98 22.0007 5.45067 22 6V18C22 18.55 21.8043 19.021 21.413 19.413C21.0217 19.805 20.5507 20.0007 20 20H4ZM4 18H14V6H4V18ZM16 18H20V6H16V18ZM17.5 9H18.5C18.6333 9 18.75 8.95 18.85 8.85C18.95 8.75 19 8.63333 19 8.5V7.5C19 7.36667 18.95 7.25 18.85 7.15C18.75 7.05 18.6333 7 18.5 7H17.5C17.3667 7 17.25 7.05 17.15 7.15C17.05 7.25 17 7.36667 17 7.5V8.5C17 8.63333 17.05 8.75 17.15 8.85C17.25 8.95 17.3667 9 17.5 9ZM18 13C18.2833 13 18.521 12.904 18.713 12.712C18.905 12.52 19.0007 12.2827 19 12C18.9993 11.7173 18.9033 11.48 18.712 11.288C18.5207 11.096 18.2833 11 18 11C17.7167 11 17.4793 11.096 17.288 11.288C17.0967 11.48 17.0007 11.7173 17 12C16.9993 12.2827 17.0953 12.5203 17.288 12.713C17.4807 12.9057 17.718 13.0013 18 13ZM18 17C18.2833 17 18.521 16.904 18.713 16.712C18.905 16.52 19.0007 16.2827 19 16C18.9993 15.7173 18.9033 15.48 18.712 15.288C18.5207 15.096 18.2833 15 18 15C17.7167 15 17.4793 15.096 17.288 15.288C17.0967 15.48 17.0007 15.7173 17 16C16.9993 16.2827 17.0953 16.5203 17.288 16.713C17.4807 16.9057 17.718 17.0013 18 17Z" fill="black"/>
</svg>
