<svg width="16" height="16" viewBox="0 0 16 16" fill="none" xmlns="http://www.w3.org/2000/svg">
<path d="M1.33334 5.08333C1.33334 4.5308 1.55283 4.0009 1.94353 3.61019C2.33423 3.21949 2.86413 3 3.41667 3H12.5833C13.1359 3 13.6658 3.21949 14.0565 3.61019C14.4472 4.0009 14.6667 4.5308 14.6667 5.08333V10.9167C14.6667 11.4692 14.4472 11.9991 14.0565 12.3898C13.6658 12.7805 13.1359 13 12.5833 13H3.41667C2.86413 13 2.33423 12.7805 1.94353 12.3898C1.55283 11.9991 1.33334 11.4692 1.33334 10.9167V5.08333ZM3.41667 3.83333C3.08515 3.83333 2.76721 3.96503 2.53279 4.19945C2.29837 4.43387 2.16667 4.75181 2.16667 5.08333V6.16667H13.8333V5.08333C13.8333 4.75181 13.7016 4.43387 13.4672 4.19945C13.2328 3.96503 12.9149 3.83333 12.5833 3.83333H3.41667ZM2.16667 10.9167C2.16667 11.2482 2.29837 11.5661 2.53279 11.8006C2.76721 12.035 3.08515 12.1667 3.41667 12.1667H12.5833C12.9149 12.1667 13.2328 12.035 13.4672 11.8006C13.7016 11.5661 13.8333 11.2482 13.8333 10.9167V7H2.16667V10.9167ZM10.4167 9.83333C10.3062 9.83333 10.2002 9.87723 10.122 9.95537C10.0439 10.0335 10 10.1395 10 10.25C10 10.3605 10.0439 10.4665 10.122 10.5446C10.2002 10.6228 10.3062 10.6667 10.4167 10.6667H12.25C12.3605 10.6667 12.4665 10.6228 12.5446 10.5446C12.6228 10.4665 12.6667 10.3605 12.6667 10.25C12.6667 10.1395 12.6228 10.0335 12.5446 9.95537C12.4665 9.87723 12.3605 9.83333 12.25 9.83333H10.4167Z" fill="black"/>
</svg>
