<svg width="24" height="24" viewBox="0 0 24 24" fill="none" xmlns="http://www.w3.org/2000/svg">
<path d="M16 7C16.2833 7 16.521 6.904 16.713 6.712C16.905 6.52 17.0007 6.28267 17 6C16.9993 5.71733 16.9033 5.48 16.712 5.288C16.5207 5.096 16.2833 5 16 5C15.7167 5 15.4793 5.096 15.288 5.288C15.0967 5.48 15.0007 5.71733 15 6C14.9993 6.28267 15.0953 6.52033 15.288 6.713C15.4807 6.90567 15.718 7.00133 16 7ZM12 7C12.2833 7 12.521 6.904 12.713 6.712C12.905 6.52 13.0007 6.28267 13 6C12.9993 5.71733 12.9033 5.48 12.712 5.288C12.5207 5.096 12.2833 5 12 5C11.7167 5 11.4793 5.096 11.288 5.288C11.0967 5.48 11.0007 5.71733 11 6C10.9993 6.28267 11.0953 6.52033 11.288 6.713C11.4807 6.90567 11.718 7.00133 12 7ZM8 7C8.28333 7 8.521 6.904 8.713 6.712C8.905 6.52 9.00067 6.28267 9 6C8.99933 5.71733 8.90333 5.48 8.712 5.288C8.52067 5.096 8.28333 5 8 5C7.71667 5 7.47933 5.096 7.288 5.288C7.09667 5.48 7.00067 5.71733 7 6C6.99933 6.28267 7.09533 6.52033 7.288 6.713C7.48067 6.90567 7.718 7.00133 8 7ZM5 10V19H19V10H5ZM11 14H13C13.2833 14 13.521 13.904 13.713 13.712C13.905 13.52 14.0007 13.2827 14 13C13.9993 12.7173 13.9033 12.48 13.712 12.288C13.5207 12.096 13.2833 12 13 12H11C10.7167 12 10.4793 12.096 10.288 12.288C10.0967 12.48 10.0007 12.7173 10 13C9.99933 13.2827 10.0953 13.5203 10.288 13.713C10.4807 13.9057 10.718 14.0013 11 14ZM5 21C4.45 21 3.97933 20.8043 3.588 20.413C3.19667 20.0217 3.00067 19.5507 3 19V5C3 4.45 3.196 3.97933 3.588 3.588C3.98 3.19667 4.45067 3.00067 5 3H19C19.55 3 20.021 3.196 20.413 3.588C20.805 3.98 21.0007 4.45067 21 5V19C21 19.55 20.8043 20.021 20.413 20.413C20.0217 20.805 19.5507 21.0007 19 21H5Z" fill="black"/>
</svg>
