<svg width="18" height="18" viewBox="0 0 18 18" fill="none" xmlns="http://www.w3.org/2000/svg">
<path d="M2.25 12.75H15.75C16.1625 12.75 16.5 13.0875 16.5 13.5C16.5 13.9125 16.1625 14.25 15.75 14.25H2.25C1.8375 14.25 1.5 13.9125 1.5 13.5C1.5 13.0875 1.8375 12.75 2.25 12.75ZM1.875 9.4275C2.145 9.585 2.49 9.4875 2.6475 9.2175L3 8.6025L3.36 9.225C3.5175 9.495 3.8625 9.585 4.1325 9.435C4.4025 9.2775 4.4925 8.94 4.3425 8.67L3.975 8.04H4.6875C4.995 8.04 5.25 7.785 5.25 7.4775C5.25 7.17 4.995 6.915 4.6875 6.915H3.975L4.3275 6.3C4.485 6.03 4.395 5.685 4.125 5.5275C3.9943 5.45475 3.84034 5.43599 3.696 5.47523C3.55165 5.51447 3.42838 5.60859 3.3525 5.7375L3 6.3525L2.6475 5.7375C2.57162 5.60859 2.44835 5.51447 2.304 5.47523C2.15966 5.43599 2.0057 5.45475 1.875 5.5275C1.605 5.685 1.515 6.03 1.6725 6.3L2.025 6.915H1.3125C1.005 6.915 0.75 7.17 0.75 7.4775C0.75 7.785 1.005 8.04 1.3125 8.04H2.025L1.665 8.6625C1.515 8.9325 1.605 9.2775 1.875 9.4275ZM7.875 9.4275C8.145 9.585 8.49 9.4875 8.6475 9.2175L9 8.6025L9.36 9.225C9.5175 9.495 9.8625 9.585 10.1325 9.435C10.4025 9.2775 10.4925 8.94 10.3425 8.67L9.9825 8.0475H10.695C11.0025 8.0475 11.2575 7.7925 11.2575 7.485C11.2575 7.1775 11.0025 6.9225 10.695 6.9225H9.975L10.3275 6.3075C10.4017 6.17788 10.422 6.02433 10.3841 5.87986C10.3463 5.7354 10.2532 5.61157 10.125 5.535C10.0615 5.49806 9.99129 5.47399 9.91847 5.46417C9.84564 5.45436 9.77159 5.45898 9.70055 5.47779C9.62951 5.49659 9.56288 5.52921 9.50444 5.57377C9.44601 5.61833 9.39693 5.67397 9.36 5.7375L9 6.3525L8.6475 5.7375C8.61101 5.67352 8.56214 5.61745 8.50376 5.57254C8.44537 5.52764 8.37863 5.49481 8.30743 5.47596C8.23623 5.45711 8.16198 5.45263 8.08903 5.46276C8.01607 5.4729 7.94587 5.49746 7.8825 5.535C7.6125 5.6925 7.5225 6.0375 7.68 6.3075L8.0325 6.9225H7.3125C7.23899 6.92151 7.16601 6.93513 7.09781 6.96258C7.0296 6.99002 6.96753 7.03075 6.9152 7.08238C6.86286 7.13402 6.82131 7.19554 6.79295 7.26337C6.76459 7.3312 6.74999 7.40398 6.75 7.4775C6.75 7.785 7.005 8.04 7.3125 8.04H8.025L7.665 8.6625C7.515 8.9325 7.605 9.2775 7.875 9.4275ZM17.25 7.4775C17.25 7.17 16.995 6.915 16.6875 6.915H15.975L16.3275 6.3C16.4017 6.17038 16.422 6.01683 16.3841 5.87236C16.3463 5.7279 16.2532 5.60407 16.125 5.5275C16.0615 5.49056 15.9913 5.46649 15.9185 5.45668C15.8456 5.44686 15.7716 5.45148 15.7006 5.47029C15.6295 5.48909 15.5629 5.52171 15.5044 5.56627C15.446 5.61083 15.3969 5.66647 15.36 5.73L15 6.3525L14.6475 5.7375C14.611 5.67352 14.5621 5.61745 14.5038 5.57254C14.4454 5.52764 14.3786 5.49481 14.3074 5.47596C14.2362 5.45711 14.162 5.45263 14.089 5.46276C14.0161 5.4729 13.9459 5.49746 13.8825 5.535C13.6125 5.6925 13.5225 6.0375 13.68 6.3075L14.0325 6.9225H13.32C13.2459 6.92081 13.1723 6.93389 13.1034 6.961C13.0344 6.9881 12.9716 7.02868 12.9185 7.08035C12.8654 7.13203 12.8232 7.19377 12.7943 7.26196C12.7653 7.33015 12.7503 7.40343 12.75 7.4775C12.75 7.785 13.005 8.04 13.3125 8.04H14.025L13.665 8.6625C13.6278 8.72632 13.6036 8.79693 13.594 8.8702C13.5844 8.94346 13.5896 9.0179 13.6091 9.08916C13.6287 9.16041 13.6623 9.22704 13.7079 9.28514C13.7536 9.34324 13.8104 9.39164 13.875 9.4275C14.145 9.585 14.49 9.4875 14.6475 9.2175L15 8.6025L15.36 9.225C15.5175 9.495 15.8625 9.585 16.1325 9.435C16.4025 9.2775 16.4925 8.94 16.3425 8.67L15.9825 8.0475H16.695C16.995 8.04 17.25 7.785 17.25 7.4775Z" fill="#1C1C1C"/>
</svg>
