<svg width="16" height="16" viewBox="0 0 16 16" fill="none" xmlns="http://www.w3.org/2000/svg">
<path d="M5.33333 12.6667V3.33337H7.66667C8.06063 3.33337 8.45074 3.41097 8.81472 3.56174C9.17869 3.7125 9.50941 3.93348 9.78799 4.21205C10.0666 4.49063 10.2875 4.82135 10.4383 5.18532C10.5891 5.5493 10.6667 5.93941 10.6667 6.33337C10.6667 6.72734 10.5891 7.11745 10.4383 7.48142C10.2875 7.8454 10.0666 8.17612 9.78799 8.45469C9.50941 8.73327 9.17869 8.95425 8.81472 9.10501C8.45074 9.25578 8.06063 9.33337 7.66667 9.33337H5.33333M12 5.33337H4M12 7.33337H4" stroke="black" stroke-width="1.33333" stroke-linecap="round" stroke-linejoin="round"/>
</svg>
