<svg width="16" height="16" viewBox="0 0 16 16" fill="none" xmlns="http://www.w3.org/2000/svg">
<g clip-path="url(#clip0_522_848)">
<path d="M15.2499 0H9.24988C8.83788 0 8.26087 0.239 7.96987 0.53L0.530875 7.969C0.46118 8.03865 0.405893 8.12135 0.368172 8.21238C0.33045 8.3034 0.311035 8.40097 0.311035 8.4995C0.311035 8.59803 0.33045 8.6956 0.368172 8.78662C0.405893 8.87765 0.46118 8.96035 0.530875 9.03L6.96987 15.469C7.03953 15.5387 7.12223 15.594 7.21325 15.6317C7.30428 15.6694 7.40184 15.6888 7.50038 15.6888C7.59891 15.6888 7.69647 15.6694 7.7875 15.6317C7.87852 15.594 7.96122 15.5387 8.03088 15.469L15.4699 8.03C15.7619 7.738 15.9999 7.162 15.9999 6.75V0.75C15.9991 0.551331 15.9198 0.361024 15.7793 0.220543C15.6389 0.0800612 15.4485 0.000789946 15.2499 0ZM11.4999 6C11.3028 5.99993 11.1077 5.96106 10.9257 5.88559C10.7437 5.81012 10.5783 5.69954 10.439 5.56016C10.2997 5.42078 10.1892 5.25533 10.1139 5.07325C10.0386 4.89118 9.99981 4.69605 9.99988 4.499C9.99994 4.30195 10.0388 4.10685 10.1143 3.92482C10.1898 3.7428 10.3003 3.57742 10.4397 3.43813C10.5791 3.29884 10.7445 3.18837 10.9266 3.11303C11.1087 3.03768 11.3038 2.99893 11.5009 2.999C11.8988 2.99913 12.2804 3.15735 12.5617 3.43884C12.843 3.72033 13.001 4.10204 13.0009 4.5C13.0007 4.89796 12.8425 5.27956 12.561 5.56087C12.2795 5.84217 11.8978 6.00013 11.4999 6Z" fill="black"/>
</g>
<defs>
<clipPath id="clip0_522_848">
<rect width="16" height="16" fill="white"/>
</clipPath>
</defs>
</svg>
