<svg width="16" height="16" viewBox="0 0 16 16" fill="none" xmlns="http://www.w3.org/2000/svg">
<path fill-rule="evenodd" clip-rule="evenodd" d="M11.994 4.00669L3.5993 7.04202L6.39596 8.66069L8.86196 6.19402C8.98706 6.06901 9.15669 5.99882 9.33353 5.99888C9.51038 5.99895 9.67996 6.06926 9.80496 6.19435C9.92997 6.31945 10.0002 6.48908 10.0001 6.66592C10 6.84277 9.92972 7.01235 9.80463 7.13735L7.33796 9.60402L8.95796 12.4L11.994 4.00669ZM12.2093 2.51069C13.006 2.22202 13.778 2.99402 13.4893 3.79069L9.96796 13.5274C9.67863 14.326 8.58796 14.4234 8.16196 13.688L6.0173 9.98269L2.31196 7.83802C1.57663 7.41202 1.67396 6.32135 2.47263 6.03202L12.2093 2.51069Z" fill="black"/>
</svg>
