<svg width="13" height="16" viewBox="0 0 13 16" fill="none" xmlns="http://www.w3.org/2000/svg">
<g clip-path="url(#clip0_544_848)">
<path d="M9.14378 0.286V0.275333C9.14378 0.123333 9.26712 0 9.41912 0H9.42978H9.42912H12.0051C12.1611 0 12.3018 0.0653333 12.4018 0.169333C12.4554 0.220512 12.4981 0.282069 12.5272 0.350261C12.5563 0.418453 12.5713 0.491855 12.5711 0.566V3.15333C12.5711 3.22636 12.5421 3.29639 12.4905 3.34802C12.4388 3.39966 12.3688 3.42867 12.2958 3.42867H12.2845H11.7031C11.6301 3.42867 11.5601 3.39966 11.5084 3.34802C11.4568 3.29639 11.4278 3.22636 11.4278 3.15333V3.142V3.14267V1.94667L9.15845 4.22333C9.88833 5.11474 10.2861 6.2319 10.2838 7.384V7.43067V7.428L10.2845 7.49467C10.2871 8.74443 9.81535 9.94863 8.96445 10.864L8.96712 10.8607C8.13896 11.8055 6.98469 12.4028 5.73512 12.5333L5.71378 12.5353V13.714H6.58178C6.73378 13.714 6.85712 13.8373 6.85712 13.9893V14.0007V14.582C6.85712 14.655 6.82811 14.7251 6.77647 14.7767C6.72484 14.8283 6.65481 14.8573 6.58178 14.8573H6.57045H6.57112H5.71378V15.7253C5.71378 15.7984 5.68478 15.8684 5.63314 15.92C5.58151 15.9717 5.51147 16.0007 5.43845 16.0007H5.42712H5.42778H4.84578C4.77276 16.0007 4.70273 15.9717 4.65109 15.92C4.59946 15.8684 4.57045 15.7984 4.57045 15.7253V15.714V15.7147V14.8573H3.70245C3.62943 14.8573 3.5594 14.8283 3.50776 14.7767C3.45613 14.7251 3.42712 14.655 3.42712 14.582V14.5707V13.9893C3.42712 13.8373 3.55045 13.714 3.70245 13.714H3.71378H4.57178V12.5333C3.6942 12.4433 2.85606 12.1227 2.14245 11.604L2.15645 11.614C1.44908 11.1087 0.880834 10.4329 0.50445 9.64933L0.491117 9.61867C0.16527 8.94111 -0.00271843 8.1985 -0.000216601 7.44667C-0.000216601 7.29511 0.00645007 7.14511 0.0197834 6.99667L0.0184501 7.016C0.10165 5.8266 0.608818 4.70652 1.44778 3.85933L1.44712 3.86C1.9252 3.36114 2.49944 2.96435 3.13514 2.69359C3.77084 2.42284 4.45482 2.28373 5.14578 2.28467C5.65712 2.28467 6.15112 2.35933 6.61712 2.49867L6.58112 2.48933C7.22787 2.68341 7.83127 3.00005 8.35845 3.422L8.34845 3.414L10.6251 1.146H9.41845C9.34543 1.146 9.2754 1.11699 9.22376 1.06536C9.17213 1.01372 9.14312 0.94369 9.14312 0.870667V0.859333L9.14378 0.286ZM5.14378 11.4287L5.20178 11.4293C5.71832 11.4301 6.22969 11.3266 6.70531 11.1251C7.18092 10.9236 7.61099 10.6283 7.96978 10.2567L7.97045 10.2553C8.34205 9.89634 8.63752 9.46617 8.83922 8.99048C9.04093 8.5148 9.14474 8.00335 9.14445 7.48667L9.14378 7.42533V7.42867L9.14445 7.37067C9.1452 6.85413 9.04173 6.34276 8.84024 5.86715C8.63875 5.39153 8.34337 4.96146 7.97178 4.60267L7.97045 4.602C7.24845 3.876 6.24845 3.42733 5.14378 3.42733C4.03912 3.42733 3.03912 3.87667 2.31712 4.602C1.93811 4.96818 1.6384 5.40833 1.43656 5.89515C1.23472 6.38197 1.13507 6.90507 1.14378 7.432V7.42867L1.14312 7.48667C1.14312 8.57267 1.59245 9.554 2.31578 10.2547L2.31712 10.2553C2.67611 10.6269 3.10628 10.9224 3.58197 11.1241C4.05765 11.3258 4.5691 11.4296 5.08578 11.4293L5.14712 11.4287H5.14378Z" fill="black"/>
</g>
<defs>
<clipPath id="clip0_544_848">
<rect width="12.67" height="16" fill="white"/>
</clipPath>
</defs>
</svg>
