<svg width="24" height="24" viewBox="0 0 24 24" fill="none" xmlns="http://www.w3.org/2000/svg">
<path d="M7 13C7 11.6739 7.52678 10.4021 8.46447 9.46447C9.40215 8.52678 10.6739 8 12 8C13.3261 8 14.5979 8.52678 15.5355 9.46447C16.4732 10.4021 17 11.6739 17 13V18C17 19.886 17 20.828 16.414 21.414C15.828 22 14.886 22 13 22H11C9.114 22 8.172 22 7.586 21.414C7 20.828 7 19.886 7 18V13Z" stroke="black" stroke-width="1.5" stroke-linecap="round" stroke-linejoin="round"/>
<path d="M10 8V7C10 6.057 10 5.586 10.293 5.293C10.586 5 11.057 5 12 5M12 5C12.943 5 13.414 5 13.707 5.293C14 5.586 14 6.057 14 7V8M12 5V2M12 2H10M12 2H14.745C15.5022 2.00019 16.2313 2.28668 16.786 2.802L17 3M7 13H17" stroke="black" stroke-width="1.5" stroke-linecap="round" stroke-linejoin="round"/>
</svg>
