<svg width="24" height="24" viewBox="0 0 24 24" fill="none" xmlns="http://www.w3.org/2000/svg">
<path d="M18 8L17.2 11C17.1433 11.2782 16.9935 11.5288 16.7754 11.7105C16.5573 11.8923 16.2839 11.9944 16 12H8C7.71615 11.9944 7.44267 11.8923 7.22456 11.7105C7.00646 11.5288 6.85673 11.2782 6.8 11L6 8M12 16C12.643 16.288 13.017 16.756 13 17.25C13.017 17.744 12.643 18.212 12 18.5C11.357 18.788 10.983 19.256 11 19.75C10.983 20.244 11.357 20.712 12 21M7 16C7.643 16.288 8.017 16.756 8 17.25C8.017 17.744 7.643 18.212 7 18.5C6.357 18.788 5.983 19.256 6 19.75C5.983 20.244 6.357 20.712 7 21M17 16C17.643 16.288 18.017 16.756 18 17.25C18.017 17.744 17.643 18.212 17 18.5C16.357 18.788 15.983 19.256 16 19.75C15.983 20.244 16.357 20.712 17 21M3 5C3 4.73478 3.10536 4.48043 3.29289 4.29289C3.48043 4.10536 3.73478 4 4 4H20C20.2652 4 20.5196 4.10536 20.7071 4.29289C20.8946 4.48043 21 4.73478 21 5V7C21 7.26522 20.8946 7.51957 20.7071 7.70711C20.5196 7.89464 20.2652 8 20 8H4C3.73478 8 3.48043 7.89464 3.29289 7.70711C3.10536 7.51957 3 7.26522 3 7V5Z" stroke="black" stroke-width="2" stroke-linecap="round" stroke-linejoin="round"/>
</svg>
