<svg width="24" height="24" viewBox="0 0 24 24" fill="none" xmlns="http://www.w3.org/2000/svg">
<path d="M4 10C4 6.229 4 4.343 5.172 3.172C6.344 2.001 8.229 2 12 2C15.771 2 17.657 2 18.828 3.172C19.999 4.344 20 6.229 20 10V14C20 17.771 20 19.657 18.828 20.828C17.656 21.999 15.771 22 12 22C8.229 22 6.343 22 5.172 20.828C4.001 19.656 4 17.771 4 14V10Z" stroke="black" stroke-width="1.5"/>
<path d="M14 7.5C14 8.03043 13.7893 8.53914 13.4142 8.91421C13.0391 9.28929 12.5304 9.5 12 9.5C11.4696 9.5 10.9609 9.28929 10.5858 8.91421C10.2107 8.53914 10 8.03043 10 7.5C10 6.96957 10.2107 6.46086 10.5858 6.08579C10.9609 5.71071 11.4696 5.5 12 5.5C12.5304 5.5 13.0391 5.71071 13.4142 6.08579C13.7893 6.46086 14 6.96957 14 7.5ZM15 15.5C15 16.2956 14.6839 17.0587 14.1213 17.6213C13.5587 18.1839 12.7956 18.5 12 18.5C11.2044 18.5 10.4413 18.1839 9.87868 17.6213C9.31607 17.0587 9 16.2956 9 15.5C9 14.7044 9.31607 13.9413 9.87868 13.3787C10.4413 12.8161 11.2044 12.5 12 12.5C12.7956 12.5 13.5587 12.8161 14.1213 13.3787C14.6839 13.9413 15 14.7044 15 15.5Z" stroke="black" stroke-width="1.5"/>
</svg>
