<svg width="19" height="18" viewBox="0 0 19 18" fill="none" xmlns="http://www.w3.org/2000/svg">
<path d="M7.82768 1.10245C8.33862 -0.367484 10.4175 -0.367484 10.9284 1.10245L12.0903 4.44504C12.3157 5.09349 12.9209 5.53316 13.6072 5.54715L17.1453 5.61925C18.7011 5.65096 19.3435 7.62805 18.1034 8.56823L15.2835 10.7062C14.7364 11.1209 14.5053 11.8323 14.7041 12.4894L15.7288 15.8766C16.1795 17.3661 14.4976 18.588 13.2203 17.6991L10.3156 15.6779C9.75205 15.2857 9.00404 15.2857 8.44053 15.6779L5.53583 17.6991C4.25845 18.588 2.57664 17.3661 3.02728 15.8766L4.05202 12.4894C4.25082 11.8323 4.01967 11.1209 3.4726 10.7062L0.652656 8.56823C-0.587445 7.62805 0.0549511 5.65096 1.61084 5.61925L5.14887 5.54715C5.83524 5.53316 6.44039 5.09349 6.66579 4.44504L7.82768 1.10245Z" fill="#FEBB5E"/>
</svg>
