<svg width="16" height="16" viewBox="0 0 16 16" fill="none" xmlns="http://www.w3.org/2000/svg">
<path d="M5.31333 6.59071H10.6867M5.31333 9.40938H9.14534M8 14.1667C9.33959 14.1664 10.6427 13.7299 11.7121 12.9233C12.7816 12.1166 13.5593 10.9836 13.9277 9.69563C14.296 8.40767 14.2349 7.0348 13.7537 5.78464C13.2724 4.53448 12.3971 3.47503 11.2603 2.76652C10.1234 2.058 8.78669 1.73895 7.45237 1.85763C6.11805 1.9763 4.85865 2.52624 3.86465 3.42428C2.87066 4.32231 2.19612 5.5196 1.94305 6.83507C1.68998 8.15054 1.87215 9.51264 2.462 10.7154C2.534 10.862 2.558 11.0274 2.52133 11.186L1.97733 13.5434C1.962 13.6095 1.96376 13.6785 1.98245 13.7438C2.00114 13.8091 2.03614 13.8685 2.08416 13.9166C2.13218 13.9646 2.19163 13.9996 2.25692 14.0183C2.32221 14.037 2.39118 14.0387 2.45733 14.0234L4.814 13.4787C4.97312 13.4439 5.13938 13.4651 5.28467 13.5387C6.1296 13.9536 7.05869 14.1685 8 14.1667Z" stroke="black" stroke-linecap="round" stroke-linejoin="round"/>
</svg>
