<svg width="24" height="24" viewBox="0 0 24 24" fill="none" xmlns="http://www.w3.org/2000/svg">
<g clip-path="url(#clip0_464_877)">
<path fill-rule="evenodd" clip-rule="evenodd" d="M6.56058 0.966841C9.19346 0.247381 11.9711 0.247381 14.604 0.966841C16.2703 1.40741 17.3572 2.78056 17.5354 4.22913C17.637 4.99202 17.4592 5.76591 17.0349 6.40798C16.723 6.86778 16.2987 7.24015 15.8023 7.4897C15.816 7.87941 15.8223 8.28627 15.8212 8.71027L16.2926 8.7497C17.9383 8.88513 19.368 9.90684 20.0469 11.3588H22.2823C22.6233 11.3588 22.9503 11.4943 23.1914 11.7354C23.4325 11.9765 23.568 12.3036 23.568 12.6446C23.568 12.9855 23.4325 13.3126 23.1914 13.5537C22.9503 13.7948 22.6233 13.9303 22.2823 13.9303H20.5903C20.7198 15.0041 20.7473 16.0878 20.6726 17.1668C20.6194 17.9434 20.5217 18.6994 20.4154 19.4263C20.2592 20.4363 19.7675 21.3643 19.0196 22.0609C18.2717 22.7575 17.3111 23.1821 16.2926 23.2663C14.4737 23.4171 12.5486 23.5714 10.572 23.5714C8.59544 23.5714 6.66858 23.4171 4.84972 23.2663C3.83116 23.1821 2.87059 22.7575 2.1227 22.0609C1.37481 21.3643 0.883141 20.4363 0.726864 19.4263C0.626143 18.7605 0.547244 18.0915 0.490293 17.4206L0.432007 16.0543V16.008C0.432007 14.82 0.56915 13.6697 0.726864 12.5897C0.883141 11.5797 1.37481 10.6517 2.1227 9.95508C2.87059 9.2585 3.83116 8.83392 4.84972 8.7497L5.34172 8.70855C5.34172 8.28855 5.34686 7.87713 5.36058 7.49141C4.86399 7.24139 4.43966 6.86841 4.12801 6.40798C3.70467 5.76615 3.52751 4.99296 3.62915 4.23084C3.80572 2.77884 4.89258 1.40741 6.56058 0.966841ZM14.0572 3.04113C11.7826 2.41699 9.38197 2.41699 7.10744 3.04113C6.29829 3.2537 5.82858 3.89998 5.75486 4.4897C5.71392 4.74274 5.76895 5.00196 5.90915 5.21656C6.03258 5.4017 6.27429 5.61256 6.74401 5.7377C7.24115 5.8697 7.57544 6.33598 7.53944 6.84856C7.50515 7.33541 7.48801 7.9217 7.48458 8.55084C8.5118 8.48347 9.54087 8.44803 10.5703 8.44456C11.6263 8.44456 12.6652 8.48741 13.6783 8.55084C13.6783 7.92341 13.6612 7.33541 13.6252 6.84856C13.6076 6.59999 13.6773 6.35308 13.8222 6.15033C13.967 5.94759 14.178 5.80167 14.4189 5.7377C14.8903 5.61256 15.1303 5.4017 15.2554 5.21656C15.395 5.00173 15.4495 4.74253 15.408 4.4897C15.336 3.89998 14.8663 3.2537 14.0572 3.03941M5.02629 10.8823C6.85201 10.7314 8.69486 10.5857 10.572 10.5857C12.4492 10.5857 14.292 10.7314 16.116 10.8823C17.2234 10.9748 18.1389 11.8251 18.2949 12.9C18.4492 13.9457 18.5692 14.9743 18.5692 16.0063C18.5685 16.4848 18.5456 16.963 18.5006 17.4394C18.4175 17.4505 18.334 17.4585 18.2503 17.4634L17.7257 17.4977C15.2966 17.6554 12.7817 17.8183 10.2052 17.8183C7.62858 17.8183 5.11372 17.6554 2.68286 17.4977L2.64858 17.496L2.63144 17.3074L2.57315 15.984C2.57486 14.9606 2.69315 13.9388 2.84744 12.9C2.93363 12.3692 3.19498 11.8825 3.58985 11.5175C3.98471 11.1524 4.49038 10.93 5.02629 10.8857" fill="black"/>
</g>
<defs>
<clipPath id="clip0_464_877">
<rect width="24" height="24" fill="white"/>
</clipPath>
</defs>
</svg>
