<svg width="24" height="24" viewBox="0 0 24 24" fill="none" xmlns="http://www.w3.org/2000/svg">
<path d="M8 11H17.135C18.6 11 19.333 11 19.775 11.735C20.217 12.471 19.957 12.939 19.435 13.877C18.9038 14.8271 18.128 15.6178 17.1881 16.1669C16.2482 16.7161 15.1785 17.0037 14.09 17C12.6101 17.0034 11.1792 16.4706 10.062 15.5M8 11V4C8 3.057 8 2.586 7.707 2.293C7.414 2 6.943 2 6 2C5.057 2 4.586 2 4.293 2.293C4 2.586 4 3.057 4 4V11C4 11.943 4 12.414 4.293 12.707C4.586 13 5.057 13 6 13C6.943 13 7.414 13 7.707 12.707C8 12.414 8 11.943 8 11ZM7 7H10" stroke="black" stroke-width="1.5" stroke-linecap="round" stroke-linejoin="round"/>
<path d="M16 17C15 18 16 21 18 22H4C5 21 6.7 17.8 5.5 13" stroke="black" stroke-width="1.5" stroke-linecap="round" stroke-linejoin="round"/>
</svg>
