<svg width="16" height="16" viewBox="0 0 16 16" fill="none" xmlns="http://www.w3.org/2000/svg">
<path d="M4.66133 9.66797C4.48452 9.66797 4.31495 9.7382 4.18993 9.86323C4.06491 9.98825 3.99467 10.1578 3.99467 10.3346V11.5226C3.13528 10.551 2.66103 9.29848 2.66133 8.0013C2.66055 7.80521 2.67213 7.60926 2.696 7.41463C2.70872 7.32669 2.70373 7.23709 2.68133 7.15111C2.65892 7.06512 2.61956 6.98448 2.56554 6.91393C2.51153 6.84338 2.44395 6.78434 2.36679 6.74027C2.28963 6.69621 2.20444 6.66802 2.11622 6.65735C2.02801 6.64669 1.93855 6.65376 1.85311 6.67817C1.76767 6.70257 1.68797 6.7438 1.6187 6.79945C1.54942 6.8551 1.49197 6.92403 1.44972 7.0022C1.40747 7.08037 1.38127 7.16619 1.37267 7.25463C1.34226 7.50235 1.32735 7.75172 1.328 8.0013C1.32867 9.59213 1.90047 11.1298 2.93933 12.3346H1.99467C1.81786 12.3346 1.64829 12.4049 1.52326 12.5299C1.39824 12.6549 1.328 12.8245 1.328 13.0013C1.328 13.1781 1.39824 13.3477 1.52326 13.4727C1.64829 13.5977 1.81786 13.668 1.99467 13.668H4.66133C4.76561 13.6667 4.86808 13.6405 4.96017 13.5916C5.05226 13.5426 5.13129 13.4724 5.19067 13.3866L5.21533 13.358C5.22 13.3513 5.22 13.3433 5.224 13.3366C5.25548 13.2829 5.27926 13.225 5.29467 13.1646C5.30453 13.1306 5.31167 13.0958 5.316 13.0606C5.318 13.0406 5.328 13.0226 5.328 13.0013V10.3346C5.328 10.1578 5.25776 9.98825 5.13274 9.86323C5.00771 9.7382 4.83815 9.66797 4.66133 9.66797ZM5.66133 4.0013H4.47267C5.44451 3.14176 6.69725 2.6675 7.99467 2.66796C8.19077 2.6674 8.38672 2.67921 8.58133 2.7033C8.757 2.72452 8.93389 2.67508 9.07311 2.56587C9.21232 2.45667 9.30245 2.29663 9.32367 2.12096C9.34489 1.9453 9.29545 1.76841 9.18624 1.62919C9.07703 1.48998 8.917 1.39985 8.74133 1.37863C8.4936 1.34845 8.24423 1.33376 7.99467 1.33463C6.40384 1.3353 4.86612 1.9071 3.66133 2.94597V2.0013C3.66133 1.82449 3.5911 1.65492 3.46607 1.52989C3.34105 1.40487 3.17148 1.33463 2.99467 1.33463C2.81786 1.33463 2.64829 1.40487 2.52326 1.52989C2.39824 1.65492 2.328 1.82449 2.328 2.0013V4.66797C2.33233 4.71205 2.34104 4.7556 2.354 4.79797C2.37056 4.88008 2.40245 4.95833 2.448 5.02863L2.456 5.03997C2.50027 5.10368 2.55532 5.15918 2.61867 5.20397C2.626 5.2093 2.63 5.2173 2.63733 5.22263C2.64667 5.2293 2.65733 5.2313 2.66733 5.23663C2.70538 5.25923 2.74557 5.27799 2.78733 5.29263C2.8435 5.31212 2.90202 5.324 2.96133 5.32797C2.97333 5.32797 2.98267 5.33463 2.99467 5.33463H5.66133C5.83814 5.33463 6.00771 5.26439 6.13274 5.13937C6.25776 5.01435 6.328 4.84478 6.328 4.66797C6.328 4.49115 6.25776 4.32158 6.13274 4.19656C6.00771 4.07154 5.83814 4.0013 5.66133 4.0013ZM13.6347 11.204C13.618 11.1221 13.5861 11.0441 13.5407 10.974L13.5333 10.9626C13.4889 10.8989 13.4336 10.8434 13.37 10.7986C13.3627 10.7933 13.3593 10.7853 13.3513 10.78C13.3447 10.7753 13.336 10.7753 13.3287 10.7706C13.2438 10.7241 13.1512 10.6934 13.0553 10.68C13.034 10.678 13.016 10.668 12.9947 10.668H10.328C10.1512 10.668 9.98162 10.7382 9.8566 10.8632C9.73157 10.9883 9.66133 11.1578 9.66133 11.3346C9.66133 11.5114 9.73157 11.681 9.8566 11.806C9.98162 11.9311 10.1512 12.0013 10.328 12.0013H11.516C10.5443 12.8607 9.29185 13.3349 7.99467 13.3346C7.79855 13.335 7.60261 13.3229 7.408 13.2986C7.23234 13.2774 7.05544 13.3268 6.91623 13.4361C6.77701 13.5453 6.68688 13.7053 6.66567 13.881C6.64445 14.0566 6.69388 14.2335 6.80309 14.3727C6.9123 14.512 7.07234 14.6021 7.248 14.6233C7.49572 14.6537 7.74509 14.6686 7.99467 14.668C9.5855 14.6673 11.1232 14.0955 12.328 13.0566V14.0013C12.328 14.1781 12.3982 14.3477 12.5233 14.4727C12.6483 14.5977 12.8179 14.668 12.9947 14.668C13.1715 14.668 13.341 14.5977 13.4661 14.4727C13.5911 14.3477 13.6613 14.1781 13.6613 14.0013V11.3346C13.6568 11.2905 13.6479 11.2463 13.6347 11.204ZM13.9947 3.66797C14.1715 3.66797 14.341 3.59773 14.4661 3.4727C14.5911 3.34768 14.6613 3.17811 14.6613 3.0013C14.6613 2.82449 14.5911 2.65492 14.4661 2.52989C14.341 2.40487 14.1715 2.33463 13.9947 2.33463H11.328C11.2846 2.33909 11.2417 2.3478 11.2 2.36063L11.1953 2.3613C11.1147 2.37813 11.0378 2.40978 10.9687 2.45463L10.9553 2.4633C10.8919 2.50762 10.8366 2.56267 10.792 2.62596C10.7867 2.63263 10.7787 2.63663 10.7733 2.64397C10.7687 2.65063 10.7687 2.6593 10.764 2.66663C10.7173 2.75212 10.6865 2.84543 10.6733 2.94197C10.6713 2.96197 10.6613 2.97996 10.6613 3.0013V5.66797C10.6613 5.84478 10.7316 6.01435 10.8566 6.13937C10.9816 6.26439 11.1512 6.33463 11.328 6.33463C11.5048 6.33463 11.6744 6.26439 11.7994 6.13937C11.9244 6.01435 11.9947 5.84478 11.9947 5.66797V4.4793C12.8537 5.45146 13.3278 6.704 13.328 8.0013C13.3286 8.1974 13.3168 8.39335 13.2927 8.58797C13.2714 8.76344 13.3207 8.94018 13.4297 9.07933C13.5387 9.21847 13.6985 9.30862 13.874 9.32997C13.901 9.33318 13.9282 9.33474 13.9553 9.33463C14.1181 9.33434 14.2751 9.27453 14.3968 9.16646C14.5185 9.05839 14.5965 8.90954 14.616 8.74797C14.6466 8.50026 14.6618 8.25089 14.6613 8.0013C14.6607 6.41047 14.0889 4.87275 13.05 3.66797H13.9947Z" fill="black"/>
</svg>
