<svg width="24" height="24" viewBox="0 0 24 24" fill="none" xmlns="http://www.w3.org/2000/svg">
<path d="M12 20C9.87827 20 7.84344 19.1572 6.34315 17.6569C4.84286 16.1566 4 14.1217 4 12H2C2 17.523 6.47701 22 12 22V20ZM12 4.00001C14.1217 4.00001 16.1566 4.84286 17.6569 6.34315C19.1572 7.84344 20 9.87828 20 12H22C22 6.47701 17.523 2.00001 12 2.00001V4.00001ZM4 12C3.99833 10.9492 4.20447 9.90838 4.60658 8.93753C5.00869 7.96667 5.59881 7.08492 6.343 6.34301L4.93 4.93001C4.00014 5.85727 3.26263 6.9591 2.75981 8.17221C2.25699 9.38533 1.99878 10.6858 2 11.999L4 12ZM6.343 6.34301C7.08492 5.59882 7.96667 5.00869 8.93753 4.60658C9.90838 4.20448 10.9492 3.99833 12 4.00001V2.00001C10.6865 1.99839 9.38572 2.25631 8.17225 2.75897C6.95878 3.26162 5.85659 3.99909 4.929 4.92901L6.343 6.34301ZM4.929 6.34301L17.657 19.071L19.071 17.657L6.343 4.92901L4.929 6.34301ZM20 12C20.0017 13.0508 19.7955 14.0916 19.3934 15.0625C18.9913 16.0333 18.4012 16.9151 17.657 17.657L19.071 19.071C20.0009 18.1434 20.7384 17.0412 21.241 15.8278C21.7437 14.6143 22.0016 13.3135 22 12H20ZM17.657 17.657C16.9151 18.4012 16.0333 18.9913 15.0625 19.3934C14.0916 19.7955 13.0508 20.0017 12 20V22C13.3135 22.0016 14.6143 21.7437 15.8278 21.2411C17.0412 20.7384 18.1434 20.0009 19.071 19.071L17.657 17.657Z" fill="black"/>
</svg>
