<svg width="16" height="16" viewBox="0 0 16 16" fill="none" xmlns="http://www.w3.org/2000/svg">
<path fill-rule="evenodd" clip-rule="evenodd" d="M4.66667 4.66668C4.66555 3.85456 4.96095 3.06997 5.49739 2.46025C6.03383 1.85052 6.77441 1.45761 7.58006 1.3553C8.38571 1.25299 9.20099 1.44831 9.87281 1.9046C10.5446 2.36088 11.0268 3.04673 11.2287 3.83334C11.2729 4.00458 11.2472 4.18637 11.1574 4.33871C11.0676 4.49105 10.9209 4.60147 10.7497 4.64568C10.5784 4.68988 10.3966 4.66424 10.2443 4.57441C10.092 4.48458 9.98154 4.33792 9.93734 4.16668C9.8163 3.69458 9.52704 3.28293 9.12391 3.00906C8.72078 2.73518 8.23152 2.61793 7.74804 2.67933C7.26457 2.74072 6.82014 2.97654 6.49826 3.34249C6.17638 3.70843 5.9992 4.17931 6 4.66668V6.66668H11.6C12.1867 6.66668 12.6667 7.14668 12.6667 7.73334V12.4C12.6667 13.28 11.9467 14 11.0667 14H4.93334C4.05334 14 3.33334 13.28 3.33334 12.4V7.73334C3.33334 7.14668 3.81334 6.66668 4.4 6.66668H4.66667V4.66668ZM8 8.16668C7.7349 8.1664 7.4776 8.25642 7.27049 8.42192C7.06338 8.58741 6.91882 8.81851 6.8606 9.07715C6.80238 9.33578 6.83399 9.60653 6.95021 9.84481C7.06644 10.0831 7.26035 10.2747 7.5 10.388V12C7.5 12.1326 7.55268 12.2598 7.64645 12.3536C7.74022 12.4473 7.86739 12.5 8 12.5C8.13261 12.5 8.25979 12.4473 8.35356 12.3536C8.44732 12.2598 8.5 12.1326 8.5 12V10.388C8.73966 10.2747 8.93357 10.0831 9.04979 9.84481C9.16602 9.60653 9.19762 9.33578 9.13941 9.07715C9.08119 8.81851 8.93662 8.58741 8.72951 8.42192C8.52241 8.25642 8.26511 8.1664 8 8.16668Z" fill="black"/>
</svg>
