<svg width="24" height="24" viewBox="0 0 24 24" fill="none" xmlns="http://www.w3.org/2000/svg">
<path d="M12 8.4001C13.1088 8.39994 14.1835 8.78366 15.0414 9.48607C15.8994 10.1885 16.4877 11.1663 16.7064 12.2533L16.7364 12.2689L16.7172 12.3061C16.7716 12.5965 16.7992 12.8945 16.8 13.2001C16.8 14.1494 16.5185 15.0775 15.991 15.8668C15.4636 16.6562 14.7139 17.2714 13.8369 17.6347C12.9598 17.998 11.9947 18.0931 11.0635 17.9079C10.1324 17.7227 9.27716 17.2655 8.60586 16.5942C7.93457 15.9229 7.47742 15.0676 7.29221 14.1365C7.107 13.2054 7.20205 12.2403 7.56535 11.3632C7.92865 10.4861 8.54388 9.73647 9.33324 9.20904C10.1226 8.68161 11.0506 8.4001 12 8.4001ZM8.98078 12.8017C9.78238 12.4453 10.8204 12.2857 12.1452 12.6181C13.9008 13.0561 14.9436 12.5413 15.4164 12.0625C15.1476 11.2592 14.6042 10.5763 13.8818 10.134C13.1594 9.69163 12.3041 9.51811 11.4664 9.64392C10.6287 9.76973 9.86217 10.1868 9.30156 10.8219C8.74094 11.4569 8.42213 12.2693 8.40118 13.1161C8.58608 12.9967 8.77985 12.8916 8.98078 12.8017ZM8.99998 6.6001C8.99998 6.83879 8.90515 7.06771 8.73637 7.23649C8.56759 7.40528 8.33867 7.5001 8.09998 7.5001C7.86128 7.5001 7.63236 7.40528 7.46358 7.23649C7.2948 7.06771 7.19998 6.83879 7.19998 6.6001C7.19998 6.3614 7.2948 6.13248 7.46358 5.9637C7.63236 5.79492 7.86128 5.7001 8.09998 5.7001C8.33867 5.7001 8.56759 5.79492 8.73637 5.9637C8.90515 6.13248 8.99998 6.3614 8.99998 6.6001ZM12.6 6.0001C12.4408 6.0001 12.2882 6.06331 12.1757 6.17583C12.0632 6.28836 12 6.44097 12 6.6001C12 6.75923 12.0632 6.91184 12.1757 7.02436C12.2882 7.13688 12.4408 7.2001 12.6 7.2001H16.2C16.3591 7.2001 16.5117 7.13688 16.6242 7.02436C16.7368 6.91184 16.8 6.75923 16.8 6.6001C16.8 6.44097 16.7368 6.28836 16.6242 6.17583C16.5117 6.06331 16.3591 6.0001 16.2 6.0001H12.6ZM7.19998 3.6001C6.2452 3.6001 5.32952 3.97938 4.65439 4.65451C3.97926 5.32964 3.59998 6.24532 3.59998 7.2001V16.8001C3.59998 17.7549 3.97926 18.6706 4.65439 19.3457C5.32952 20.0208 6.2452 20.4001 7.19998 20.4001H16.8C17.7548 20.4001 18.6704 20.0208 19.3456 19.3457C20.0207 18.6706 20.4 17.7549 20.4 16.8001V7.2001C20.4 6.24532 20.0207 5.32964 19.3456 4.65451C18.6704 3.97938 17.7548 3.6001 16.8 3.6001H7.19998ZM4.79998 7.2001C4.79998 6.56358 5.05283 5.95313 5.50292 5.50304C5.95301 5.05295 6.56346 4.8001 7.19998 4.8001H16.8C17.4365 4.8001 18.0469 5.05295 18.497 5.50304C18.9471 5.95313 19.2 6.56358 19.2 7.2001V16.8001C19.2 17.4366 18.9471 18.0471 18.497 18.4972C18.0469 18.9472 17.4365 19.2001 16.8 19.2001H7.19998C6.56346 19.2001 5.95301 18.9472 5.50292 18.4972C5.05283 18.0471 4.79998 17.4366 4.79998 16.8001V7.2001Z" fill="black"/>
</svg>
